<svg xmlns="http://www.w3.org/2000/svg" viewBox="0 0 480 230" width="480" height="230">
  <style><![CDATA[
    @property --bg {
      syntax: "<color>";
      inherits: true;
      initial-value: #d0d7f0;
    }
  ]]></style>

  <path data-layer-name="bg" id="bg" d="M 0 0 l 480 0 l 0 230 l -480 0 z" fill="var(--bg, #d0d7f0)" stroke="none" stroke-width="2"/>
  <g data-layer-name="left" id="left" transform="translate(40, 75)">
    <path data-layer-name="left-form" id="left-form" d="M 0 0 h 100 a 18 18 0 0 1 18 18 v 50 a 18 18 0 0 1 -18 18 l -84 0 a 16 16 0 0 1 -16 -16 l 0 -70 z M 148 43 a 20 20 0 1 1 40 0 a 20 20 0 1 1 -40 0" fill="none" stroke="#0d1638" stroke-width="1.5"/>
    <text data-layer-name="left-eyebrow" id="left-eyebrow" x="0" y="-18" font-family="sans-serif" font-size="8" font-weight="700" letter-spacing="3" fill="rgba(13, 22, 56, 0.6)" text-anchor="start">THE FORM</text>
    <text data-layer-name="left-note" id="left-note" x="0" y="112" font-family="sans-serif" font-size="8" letter-spacing="0.5" fill="#0d1638" text-anchor="start">two arcs drawn, one rounded in, a circle</text>
  </g>
  <g data-layer-name="right" id="right" transform="translate(260, 75)">
    <path data-layer-name="right-form" id="right-form" d="M 0 0 h 100 a 18 18 0 0 1 18 18 v 50 a 18 18 0 0 1 -18 18 l -84 0 a 16 16 0 0 1 -16 -16 l 0 -70 z M 148 43 a 20 20 0 1 1 40 0 a 20 20 0 1 1 -40 0" fill="none" stroke="#0d1638" stroke-width="1.5"/>
    <path data-layer-name="spokes" id="spokes" d="M 112.72792206135786 5.272077938642145 L 100 18 M 112.72792206135786 80.72792206135786 L 100 68 M 4.686291501015241 81.31370849898477 L 16 70 M 168 23 L 168 43 M 168 63 L 168 43" fill="none" stroke="#bd423a" stroke-width="0.75"/>
    <path data-layer-name="centres" id="centres" d="M 111.12792206135786 5.272077938642145 a 1.6 1.6 0 1 1 3.2 0 a 1.6 1.6 0 1 1 -3.2 0 M 97.8 18 a 2.2 2.2 0 1 1 4.4 0 a 2.2 2.2 0 1 1 -4.4 0 M 111.12792206135786 80.72792206135786 a 1.6 1.6 0 1 1 3.2 0 a 1.6 1.6 0 1 1 -3.2 0 M 97.8 68 a 2.2 2.2 0 1 1 4.4 0 a 2.2 2.2 0 1 1 -4.4 0 M 3.0862915010152405 81.31370849898477 a 1.6 1.6 0 1 1 3.2 0 a 1.6 1.6 0 1 1 -3.2 0 M 13.8 70 a 2.2 2.2 0 1 1 4.4 0 a 2.2 2.2 0 1 1 -4.4 0 M 166.4 23 a 1.6 1.6 0 1 1 3.2 0 a 1.6 1.6 0 1 1 -3.2 0 M 165.8 43 a 2.2 2.2 0 1 1 4.4 0 a 2.2 2.2 0 1 1 -4.4 0 M 166.4 63 a 1.6 1.6 0 1 1 3.2 0 a 1.6 1.6 0 1 1 -3.2 0 M 165.8 43 a 2.2 2.2 0 1 1 4.4 0 a 2.2 2.2 0 1 1 -4.4 0" fill="#bd423a" stroke="none" stroke-width="2"/>
    <text data-layer-name="right-eyebrow" id="right-eyebrow" x="0" y="-18" font-family="sans-serif" font-size="8" font-weight="700" letter-spacing="3" fill="rgba(13, 22, 56, 0.6)" text-anchor="start">COMMAND(A), ASKED</text>
    <text data-layer-name="right-note" id="right-note" x="0" y="112" font-family="sans-serif" font-size="8" letter-spacing="0.5" fill="#0d1638" text-anchor="start">5 arcs found — the fillet's counted too</text>
  </g>
  <path data-layer-name="divider" id="divider" d="M 240 45 L 240 200" fill="none" stroke="rgba(13, 22, 56, 0.22)" stroke-width="0.5"/>
<script type="application/json" id="pathogen-metadata"><![CDATA[{"layers":[{"name":"bg","type":"path","styles":{"fill":"var(--bg, #d0d7f0)","stroke":"none"},"isDefault":false},{"name":"left","type":"group","styles":{},"isDefault":false,"transform":"translate(40, 75)","children":[{"name":"left-form","type":"path","styles":{"stroke":"#0d1638","stroke-width":"1.5","fill":"none"},"isDefault":false},{"name":"left-eyebrow","type":"text","styles":{"font-family":"sans-serif","font-size":"8","font-weight":"700","letter-spacing":"3","fill":"rgba(13, 22, 56, 0.6)","text-anchor":"start"},"isDefault":false},{"name":"left-note","type":"text","styles":{"font-family":"sans-serif","font-size":"8","letter-spacing":"0.5","fill":"#0d1638","text-anchor":"start"},"isDefault":false}]},{"name":"right","type":"group","styles":{},"isDefault":false,"transform":"translate(260, 75)","children":[{"name":"right-form","type":"path","styles":{"stroke":"#0d1638","stroke-width":"1.5","fill":"none"},"isDefault":false},{"name":"spokes","type":"path","styles":{"stroke":"#bd423a","stroke-width":"0.75","fill":"none"},"isDefault":false},{"name":"centres","type":"path","styles":{"fill":"#bd423a","stroke":"none"},"isDefault":false},{"name":"right-eyebrow","type":"text","styles":{"font-family":"sans-serif","font-size":"8","font-weight":"700","letter-spacing":"3","fill":"rgba(13, 22, 56, 0.6)","text-anchor":"start"},"isDefault":false},{"name":"right-note","type":"text","styles":{"font-family":"sans-serif","font-size":"8","letter-spacing":"0.5","fill":"#0d1638","text-anchor":"start"},"isDefault":false}]},{"name":"divider","type":"path","styles":{"stroke":"rgba(13, 22, 56, 0.22)","stroke-width":"0.5","fill":"none"},"isDefault":false}],"masks":[],"clipPaths":[],"gradients":[],"cssProperties":[{"name":"--bg","syntax":"<color>","inherits":true,"initialValue":"#d0d7f0"}],"viewBox":{"originX":0,"originY":0,"width":480,"height":230}}]]></script>
</svg>