<svg xmlns="http://www.w3.org/2000/svg" viewBox="0 0 480 200" width="480" height="200">

  <path data-layer-name="leather" id="leather" d="M 0 0 l 480 0 l 0 200 l -480 0 z" fill="#7c5335" stroke="none" stroke-width="2"/>
  <g data-layer-name="scene" id="scene">
    <path data-layer-name="seam-ghost" id="seam-ghost" d="M 70 78 h 340 M 70 140 h 340" fill="none" stroke="#00000040" stroke-width="1"/>
    <path data-layer-name="holes" id="holes" d="M 70 78 m 0 -2.5 l 0.01 0 a 2.5 2.5 0 0 1 0 5 l -0.01 0 a 2.5 2.5 0 0 1 0 -5 z M 70 78 m 22.009999999999998 -2.5 l 0.010000000000001563 0 a 2.5 2.5 0 0 1 0 5 l -0.010000000000001563 0 a 2.5 2.5 0 0 1 0 -5 z M 70 78 m 44.019999999999996 -2.5 l 0.010000000000005116 0 a 2.5 2.5 0 0 1 0 5 l -0.010000000000005116 0 a 2.5 2.5 0 0 1 0 -5 z M 70 78 m 66.03 -2.5 l 0.010000000000005116 0 a 2.5 2.5 0 0 1 0 5 l -0.010000000000005116 0 a 2.5 2.5 0 0 1 0 -5 z M 70 78 m 88.03999999999999 -2.5 l 0.010000000000019327 0 a 2.5 2.5 0 0 1 0 5 l -0.010000000000019327 0 a 2.5 2.5 0 0 1 0 -5 z M 70 78 m 110.05000000000001 -2.5 l 0.010000000000005116 0 a 2.5 2.5 0 0 1 0 5 l -0.010000000000005116 0 a 2.5 2.5 0 0 1 0 -5 z M 70 78 m 132.06 -2.5 l 0.009999999999990905 0 a 2.5 2.5 0 0 1 0 5 l -0.009999999999990905 0 a 2.5 2.5 0 0 1 0 -5 z M 70 78 m 154.07 -2.5 l 0.009999999999990905 0 a 2.5 2.5 0 0 1 0 5 l -0.009999999999990905 0 a 2.5 2.5 0 0 1 0 -5 z M 70 78 m 176.07999999999998 -2.5 l 0.009999999999990905 0 a 2.5 2.5 0 0 1 0 5 l -0.009999999999990905 0 a 2.5 2.5 0 0 1 0 -5 z M 70 78 m 198.08999999999997 -2.5 l 0.009999999999990905 0 a 2.5 2.5 0 0 1 0 5 l -0.009999999999990905 0 a 2.5 2.5 0 0 1 0 -5 z M 70 78 m 220.09999999999997 -2.5 l 0.009999999999990905 0 a 2.5 2.5 0 0 1 0 5 l -0.009999999999990905 0 a 2.5 2.5 0 0 1 0 -5 z M 70 78 m 242.10999999999993 -2.5 l 0.010000000000019327 0 a 2.5 2.5 0 0 1 0 5 l -0.010000000000019327 0 a 2.5 2.5 0 0 1 0 -5 z M 70 78 m 264.11999999999995 -2.5 l 0.009999999999990905 0 a 2.5 2.5 0 0 1 0 5 l -0.009999999999990905 0 a 2.5 2.5 0 0 1 0 -5 z M 70 78 m 286.12999999999994 -2.5 l 0.009999999999990905 0 a 2.5 2.5 0 0 1 0 5 l -0.009999999999990905 0 a 2.5 2.5 0 0 1 0 -5 z M 70 78 m 308.13999999999993 -2.5 l 0.009999999999990905 0 a 2.5 2.5 0 0 1 0 5 l -0.009999999999990905 0 a 2.5 2.5 0 0 1 0 -5 z M 70 78 m 330.1499999999999 -2.5 l 0.009999999999990905 0 a 2.5 2.5 0 0 1 0 5 l -0.009999999999990905 0 a 2.5 2.5 0 0 1 0 -5 z M 70 140 m 5 -2.5 l 0.009999999999999787 0 a 2.5 2.5 0 0 1 0 5 l -0.009999999999999787 0 a 2.5 2.5 0 0 1 0 -5 z M 70 140 m 27.009999999999994 -2.5 l 0.010000000000001563 0 a 2.5 2.5 0 0 1 0 5 l -0.010000000000001563 0 a 2.5 2.5 0 0 1 0 -5 z M 70 140 m 49.02 -2.5 l 0.009999999999990905 0 a 2.5 2.5 0 0 1 0 5 l -0.009999999999990905 0 a 2.5 2.5 0 0 1 0 -5 z M 70 140 m 71.03 -2.5 l 0.010000000000005116 0 a 2.5 2.5 0 0 1 0 5 l -0.010000000000005116 0 a 2.5 2.5 0 0 1 0 -5 z M 70 140 m 93.04 -2.5 l 0.010000000000019327 0 a 2.5 2.5 0 0 1 0 5 l -0.010000000000019327 0 a 2.5 2.5 0 0 1 0 -5 z M 70 140 m 115.05000000000001 -2.5 l 0.010000000000005116 0 a 2.5 2.5 0 0 1 0 5 l -0.010000000000005116 0 a 2.5 2.5 0 0 1 0 -5 z M 70 140 m 137.06 -2.5 l 0.009999999999990905 0 a 2.5 2.5 0 0 1 0 5 l -0.009999999999990905 0 a 2.5 2.5 0 0 1 0 -5 z M 70 140 m 159.07 -2.5 l 0.009999999999990905 0 a 2.5 2.5 0 0 1 0 5 l -0.009999999999990905 0 a 2.5 2.5 0 0 1 0 -5 z M 70 140 m 181.07999999999998 -2.5 l 0.009999999999990905 0 a 2.5 2.5 0 0 1 0 5 l -0.009999999999990905 0 a 2.5 2.5 0 0 1 0 -5 z M 70 140 m 203.08999999999995 -2.5 l 0.010000000000019327 0 a 2.5 2.5 0 0 1 0 5 l -0.010000000000019327 0 a 2.5 2.5 0 0 1 0 -5 z M 70 140 m 225.09999999999997 -2.5 l 0.009999999999990905 0 a 2.5 2.5 0 0 1 0 5 l -0.009999999999990905 0 a 2.5 2.5 0 0 1 0 -5 z M 70 140 m 247.10999999999996 -2.5 l 0.009999999999990905 0 a 2.5 2.5 0 0 1 0 5 l -0.009999999999990905 0 a 2.5 2.5 0 0 1 0 -5 z M 70 140 m 269.11999999999995 -2.5 l 0.009999999999990905 0 a 2.5 2.5 0 0 1 0 5 l -0.009999999999990905 0 a 2.5 2.5 0 0 1 0 -5 z M 70 140 m 291.12999999999994 -2.5 l 0.010000000000047748 0 a 2.5 2.5 0 0 1 0 5 l -0.010000000000047748 0 a 2.5 2.5 0 0 1 0 -5 z M 70 140 m 313.13999999999993 -2.5 l 0.009999999999990905 0 a 2.5 2.5 0 0 1 0 5 l -0.009999999999990905 0 a 2.5 2.5 0 0 1 0 -5 z M 70 140 m 335.1499999999999 -2.5 l 0.009999999999990905 0 a 2.5 2.5 0 0 1 0 5 l -0.009999999999990905 0 a 2.5 2.5 0 0 1 0 -5 z" fill="#f8fafc" stroke="none" stroke-width="2"/>
    <text data-layer-name="labels" id="labels" x="70" y="46" font-family="monospace" font-size="10" fill="#f1e9dd">offset 0 — a hole ON the corner, a long remainder at the end</text>
    <text data-layer-name="labels" x="70" y="176" font-family="monospace" font-size="10" fill="#f1e9dd">offset -(length % pitch) / 2 — margins agree at both ends</text>
    <text data-layer-name="labels" x="30" y="82" font-family="monospace" font-size="10" fill="#f1e9dd">0</text>
    <text data-layer-name="labels" x="424" y="82" font-family="monospace" font-size="10" fill="#f1e9dd">10</text>
    <text data-layer-name="labels" x="30" y="144" font-family="monospace" font-size="10" fill="#f1e9dd">5</text>
    <text data-layer-name="labels" x="424" y="144" font-family="monospace" font-size="10" fill="#f1e9dd">5</text>
  </g>
<script type="application/json" id="pathogen-metadata"><![CDATA[{"layers":[{"name":"leather","type":"path","styles":{"fill":"#7c5335","stroke":"none"},"isDefault":false},{"name":"scene","type":"group","styles":{},"isDefault":false,"children":[{"name":"seam-ghost","type":"path","styles":{"stroke":"#00000040","stroke-width":"1","fill":"none"},"isDefault":false},{"name":"holes","type":"path","styles":{"fill":"#f8fafc","stroke":"none"},"isDefault":false},{"name":"labels","type":"text","styles":{"font-family":"monospace","font-size":"10","fill":"#f1e9dd"},"isDefault":false}]}],"masks":[],"clipPaths":[],"gradients":[],"cssProperties":[],"viewBox":{"originX":0,"originY":0,"width":480,"height":200}}]]></script>
</svg>