<svg xmlns="http://www.w3.org/2000/svg" viewBox="0 0 400 400" width="400" height="400">
  <style><![CDATA[
    @property --grid-color {
      syntax: "<color>";
      inherits: true;
      initial-value: #ff6688;
    }
    @property --bg-color {
      syntax: "<color>";
      inherits: true;
      initial-value: #0f172a;
    }
  ]]></style>

  <path id="bg" d="M 0 0 L 400 0 L 400 400 L 0 400 Z" fill="var(--bg-color, #0f172a)" stroke="none" stroke-width="2"/>
  <path id="shape" d="M 38.18653347947321 44 L 32.99038105676658 35 M 32.99038105676658 35 L 22.598076211353316 35 M 22.598076211353316 35 L 17.401923788646684 44 M 17.401923788646684 44 L 22.598076211353316 53 M 22.598076211353316 53 L 32.99038105676658 53 M 32.99038105676658 53 L 38.18653347947321 44 M 53.77499074759311 53 L 48.578838324886476 44 M 48.578838324886476 44 L 38.18653347947321 44 M 32.99038105676658 53 L 38.18653347947321 62 M 38.18653347947321 62 L 48.578838324886476 62 M 48.578838324886476 62 L 53.77499074759311 53 M 69.363448015713 44 L 64.16729559300637 35 M 64.16729559300637 35 L 53.77499074759311 35 M 53.77499074759311 35 L 48.578838324886476 44 M 53.77499074759311 53 L 64.16729559300637 53 M 64.16729559300637 53 L 69.363448015713 44 M 84.9519052838329 53 L 79.75575286112627 44 M 79.75575286112627 44 L 69.363448015713 44 M 64.16729559300637 53 L 69.363448015713 62 M 69.363448015713 62 L 79.75575286112627 62 M 79.75575286112627 62 L 84.9519052838329 53 M 100.5403625519528 44 L 95.34421012924616 35 M 95.34421012924616 35 L 84.9519052838329 35 M 84.9519052838329 35 L 79.75575286112627 44 M 84.9519052838329 53 L 95.34421012924616 53 M 95.34421012924616 53 L 100.5403625519528 44 M 116.12881982007269 53 L 110.93266739736606 44 M 110.93266739736606 44 L 100.5403625519528 44 M 95.34421012924616 53 L 100.5403625519528 62 M 100.5403625519528 62 L 110.93266739736606 62 M 110.93266739736606 62 L 116.12881982007269 53 M 131.7172770881926 44 L 126.52112466548596 35 M 126.52112466548596 35 L 116.12881982007269 35 M 116.12881982007269 35 L 110.93266739736606 44 M 116.12881982007269 53 L 126.52112466548596 53 M 126.52112466548596 53 L 131.7172770881926 44 M 147.30573435631248 53 L 142.10958193360585 44 M 142.10958193360585 44 L 131.7172770881926 44 M 126.52112466548596 53 L 131.7172770881926 62 M 131.7172770881926 62 L 142.10958193360585 62 M 142.10958193360585 62 L 147.30573435631248 53 M 162.89419162443238 44 L 157.69803920172575 35 M 157.69803920172575 35 L 147.30573435631248 35 M 147.30573435631248 35 L 142.10958193360585 44 M 147.30573435631248 53 L 157.69803920172575 53 M 157.69803920172575 53 L 162.89419162443238 44 M 178.48264889255228 53 L 173.28649646984564 44 M 173.28649646984564 44 L 162.89419162443238 44 M 157.69803920172575 53 L 162.89419162443238 62 M 162.89419162443238 62 L 173.28649646984564 62 M 173.28649646984564 62 L 178.48264889255228 53 M 194.07110616067217 44 L 188.87495373796554 35 M 188.87495373796554 35 L 178.48264889255228 35 M 178.48264889255228 35 L 173.28649646984564 44 M 178.48264889255228 53 L 188.87495373796554 53 M 188.87495373796554 53 L 194.07110616067217 44 M 22.598076211353316 53 L 17.401923788646684 62 M 17.401923788646684 62 L 22.598076211353316 71 M 22.598076211353316 71 L 32.99038105676658 71 M 32.99038105676658 71 L 38.18653347947321 62 M 53.77499074759311 71 L 48.578838324886476 62 M 32.99038105676658 71 L 38.18653347947321 80 M 38.18653347947321 80 L 48.578838324886476 80 M 48.578838324886476 80 L 53.77499074759311 71 M 53.77499074759311 71 L 64.16729559300637 71 M 64.16729559300637 71 L 69.363448015713 62 M 84.9519052838329 71 L 79.75575286112627 62 M 64.16729559300637 71 L 69.363448015713 80 M 69.363448015713 80 L 79.75575286112627 80 M 79.75575286112627 80 L 84.9519052838329 71 M 84.9519052838329 71 L 95.34421012924616 71 M 95.34421012924616 71 L 100.5403625519528 62 M 116.12881982007269 71 L 110.93266739736606 62 M 95.34421012924616 71 L 100.5403625519528 80 M 100.5403625519528 80 L 110.93266739736606 80 M 110.93266739736606 80 L 116.12881982007269 71 M 116.12881982007269 71 L 126.52112466548596 71 M 126.52112466548596 71 L 131.7172770881926 62 M 147.30573435631248 71 L 142.10958193360585 62 M 126.52112466548596 71 L 131.7172770881926 80 M 131.7172770881926 80 L 142.10958193360585 80 M 142.10958193360585 80 L 147.30573435631248 71 M 147.30573435631248 71 L 157.69803920172575 71 M 157.69803920172575 71 L 162.89419162443238 62 M 178.48264889255228 71 L 173.28649646984564 62 M 157.69803920172575 71 L 162.89419162443238 80 M 162.89419162443238 80 L 173.28649646984564 80 M 173.28649646984564 80 L 178.48264889255228 71 M 194.07110616067217 62 L 188.87495373796554 53 M 178.48264889255228 71 L 188.87495373796554 71 M 188.87495373796554 71 L 194.07110616067217 62 M 22.598076211353316 71 L 17.401923788646684 80 M 17.401923788646684 80 L 22.598076211353316 89 M 22.598076211353316 89 L 32.99038105676658 89 M 32.99038105676658 89 L 38.18653347947321 80 M 53.77499074759311 89 L 48.578838324886476 80 M 32.99038105676658 89 L 38.18653347947321 98 M 38.18653347947321 98 L 48.578838324886476 98 M 48.578838324886476 98 L 53.77499074759311 89 M 53.77499074759311 89 L 64.16729559300637 89 M 64.16729559300637 89 L 69.363448015713 80 M 84.9519052838329 89 L 79.75575286112627 80 M 64.16729559300637 89 L 69.363448015713 98 M 69.363448015713 98 L 79.75575286112627 98 M 79.75575286112627 98 L 84.9519052838329 89 M 84.9519052838329 89 L 95.34421012924616 89 M 95.34421012924616 89 L 100.5403625519528 80 M 116.12881982007269 89 L 110.93266739736606 80 M 95.34421012924616 89 L 100.5403625519528 98 M 100.5403625519528 98 L 110.93266739736606 98 M 110.93266739736606 98 L 116.12881982007269 89 M 116.12881982007269 89 L 126.52112466548596 89 M 126.52112466548596 89 L 131.7172770881926 80 M 147.30573435631248 89 L 142.10958193360585 80 M 126.52112466548596 89 L 131.7172770881926 98 M 131.7172770881926 98 L 142.10958193360585 98 M 142.10958193360585 98 L 147.30573435631248 89 M 147.30573435631248 89 L 157.69803920172575 89 M 157.69803920172575 89 L 162.89419162443238 80 M 178.48264889255228 89 L 173.28649646984564 80 M 157.69803920172575 89 L 162.89419162443238 98 M 162.89419162443238 98 L 173.28649646984564 98 M 173.28649646984564 98 L 178.48264889255228 89 M 194.07110616067217 80 L 188.87495373796554 71 M 178.48264889255228 89 L 188.87495373796554 89 M 188.87495373796554 89 L 194.07110616067217 80 M 22.598076211353316 89 L 17.401923788646684 98 M 17.401923788646684 98 L 22.598076211353316 107 M 22.598076211353316 107 L 32.99038105676658 107 M 32.99038105676658 107 L 38.18653347947321 98 M 53.77499074759311 107 L 48.578838324886476 98 M 32.99038105676658 107 L 38.18653347947321 116 M 38.18653347947321 116 L 48.578838324886476 116 M 48.578838324886476 116 L 53.77499074759311 107 M 53.77499074759311 107 L 64.16729559300637 107 M 64.16729559300637 107 L 69.363448015713 98 M 84.9519052838329 107 L 79.75575286112627 98 M 64.16729559300637 107 L 69.363448015713 116 M 69.363448015713 116 L 79.75575286112627 116 M 79.75575286112627 116 L 84.9519052838329 107 M 84.9519052838329 107 L 95.34421012924616 107 M 95.34421012924616 107 L 100.5403625519528 98 M 116.12881982007269 107 L 110.93266739736606 98 M 95.34421012924616 107 L 100.5403625519528 116 M 100.5403625519528 116 L 110.93266739736606 116 M 110.93266739736606 116 L 116.12881982007269 107 M 116.12881982007269 107 L 126.52112466548596 107 M 126.52112466548596 107 L 131.7172770881926 98 M 147.30573435631248 107 L 142.10958193360585 98 M 126.52112466548596 107 L 131.7172770881926 116 M 131.7172770881926 116 L 142.10958193360585 116 M 142.10958193360585 116 L 147.30573435631248 107 M 147.30573435631248 107 L 157.69803920172575 107 M 157.69803920172575 107 L 162.89419162443238 98 M 178.48264889255228 107 L 173.28649646984564 98 M 157.69803920172575 107 L 162.89419162443238 116 M 162.89419162443238 116 L 173.28649646984564 116 M 173.28649646984564 116 L 178.48264889255228 107 M 194.07110616067217 98 L 188.87495373796554 89 M 178.48264889255228 107 L 188.87495373796554 107 M 188.87495373796554 107 L 194.07110616067217 98 M 22.598076211353316 107 L 17.401923788646684 116 M 17.401923788646684 116 L 22.598076211353316 125 M 22.598076211353316 125 L 32.99038105676658 125 M 32.99038105676658 125 L 38.18653347947321 116 M 53.77499074759311 125 L 48.578838324886476 116 M 32.99038105676658 125 L 38.18653347947321 134 M 38.18653347947321 134 L 48.578838324886476 134 M 48.578838324886476 134 L 53.77499074759311 125 M 53.77499074759311 125 L 64.16729559300637 125 M 64.16729559300637 125 L 69.363448015713 116 M 84.9519052838329 125 L 79.75575286112627 116 M 64.16729559300637 125 L 69.363448015713 134 M 69.363448015713 134 L 79.75575286112627 134 M 79.75575286112627 134 L 84.9519052838329 125 M 84.9519052838329 125 L 95.34421012924616 125 M 95.34421012924616 125 L 100.5403625519528 116 M 116.12881982007269 125 L 110.93266739736606 116 M 95.34421012924616 125 L 100.5403625519528 134 M 100.5403625519528 134 L 110.93266739736606 134 M 110.93266739736606 134 L 116.12881982007269 125 M 116.12881982007269 125 L 126.52112466548596 125 M 126.52112466548596 125 L 131.7172770881926 116 M 147.30573435631248 125 L 142.10958193360585 116 M 126.52112466548596 125 L 131.7172770881926 134 M 131.7172770881926 134 L 142.10958193360585 134 M 142.10958193360585 134 L 147.30573435631248 125 M 147.30573435631248 125 L 157.69803920172575 125 M 157.69803920172575 125 L 162.89419162443238 116 M 178.48264889255228 125 L 173.28649646984564 116 M 157.69803920172575 125 L 162.89419162443238 134 M 162.89419162443238 134 L 173.28649646984564 134 M 173.28649646984564 134 L 178.48264889255228 125 M 194.07110616067217 116 L 188.87495373796554 107 M 178.48264889255228 125 L 188.87495373796554 125 M 188.87495373796554 125 L 194.07110616067217 116 M 22.598076211353316 125 L 17.401923788646684 134 M 17.401923788646684 134 L 22.598076211353316 143 M 22.598076211353316 143 L 32.99038105676658 143 M 32.99038105676658 143 L 38.18653347947321 134 M 53.77499074759311 143 L 48.578838324886476 134 M 32.99038105676658 143 L 38.18653347947321 152 M 38.18653347947321 152 L 48.578838324886476 152 M 48.578838324886476 152 L 53.77499074759311 143 M 53.77499074759311 143 L 64.16729559300637 143 M 64.16729559300637 143 L 69.363448015713 134 M 84.9519052838329 143 L 79.75575286112627 134 M 64.16729559300637 143 L 69.363448015713 152 M 69.363448015713 152 L 79.75575286112627 152 M 79.75575286112627 152 L 84.9519052838329 143 M 84.9519052838329 143 L 95.34421012924616 143 M 95.34421012924616 143 L 100.5403625519528 134 M 116.12881982007269 143 L 110.93266739736606 134 M 95.34421012924616 143 L 100.5403625519528 152 M 100.5403625519528 152 L 110.93266739736606 152 M 110.93266739736606 152 L 116.12881982007269 143 M 116.12881982007269 143 L 126.52112466548596 143 M 126.52112466548596 143 L 131.7172770881926 134 M 147.30573435631248 143 L 142.10958193360585 134 M 126.52112466548596 143 L 131.7172770881926 152 M 131.7172770881926 152 L 142.10958193360585 152 M 142.10958193360585 152 L 147.30573435631248 143 M 147.30573435631248 143 L 157.69803920172575 143 M 157.69803920172575 143 L 162.89419162443238 134 M 178.48264889255228 143 L 173.28649646984564 134 M 157.69803920172575 143 L 162.89419162443238 152 M 162.89419162443238 152 L 173.28649646984564 152 M 173.28649646984564 152 L 178.48264889255228 143 M 194.07110616067217 134 L 188.87495373796554 125 M 178.48264889255228 143 L 188.87495373796554 143 M 188.87495373796554 143 L 194.07110616067217 134 M 22.598076211353316 143 L 17.401923788646684 152 M 17.401923788646684 152 L 22.598076211353316 161 M 22.598076211353316 161 L 32.99038105676658 161 M 32.99038105676658 161 L 38.18653347947321 152 M 53.77499074759311 161 L 48.578838324886476 152 M 32.99038105676658 161 L 38.18653347947321 170 M 38.18653347947321 170 L 48.578838324886476 170 M 48.578838324886476 170 L 53.77499074759311 161 M 53.77499074759311 161 L 64.16729559300637 161 M 64.16729559300637 161 L 69.363448015713 152 M 84.9519052838329 161 L 79.75575286112627 152 M 64.16729559300637 161 L 69.363448015713 170 M 69.363448015713 170 L 79.75575286112627 170 M 79.75575286112627 170 L 84.9519052838329 161 M 84.9519052838329 161 L 95.34421012924616 161 M 95.34421012924616 161 L 100.5403625519528 152 M 116.12881982007269 161 L 110.93266739736606 152 M 95.34421012924616 161 L 100.5403625519528 170 M 100.5403625519528 170 L 110.93266739736606 170 M 110.93266739736606 170 L 116.12881982007269 161 M 116.12881982007269 161 L 126.52112466548596 161 M 126.52112466548596 161 L 131.7172770881926 152 M 147.30573435631248 161 L 142.10958193360585 152 M 126.52112466548596 161 L 131.7172770881926 170 M 131.7172770881926 170 L 142.10958193360585 170 M 142.10958193360585 170 L 147.30573435631248 161 M 147.30573435631248 161 L 157.69803920172575 161 M 157.69803920172575 161 L 162.89419162443238 152 M 178.48264889255228 161 L 173.28649646984564 152 M 157.69803920172575 161 L 162.89419162443238 170 M 162.89419162443238 170 L 173.28649646984564 170 M 173.28649646984564 170 L 178.48264889255228 161 M 194.07110616067217 152 L 188.87495373796554 143 M 178.48264889255228 161 L 188.87495373796554 161 M 188.87495373796554 161 L 194.07110616067217 152 M 22.598076211353316 161 L 17.401923788646684 170 M 17.401923788646684 170 L 22.598076211353316 179 M 22.598076211353316 179 L 32.99038105676658 179 M 32.99038105676658 179 L 38.18653347947321 170 M 53.77499074759311 179 L 48.578838324886476 170 M 32.99038105676658 179 L 38.18653347947321 188 M 38.18653347947321 188 L 48.578838324886476 188 M 48.578838324886476 188 L 53.77499074759311 179 M 53.77499074759311 179 L 64.16729559300637 179 M 64.16729559300637 179 L 69.363448015713 170 M 84.9519052838329 179 L 79.75575286112627 170 M 64.16729559300637 179 L 69.363448015713 188 M 69.363448015713 188 L 79.75575286112627 188 M 79.75575286112627 188 L 84.9519052838329 179 M 84.9519052838329 179 L 95.34421012924616 179 M 95.34421012924616 179 L 100.5403625519528 170 M 116.12881982007269 179 L 110.93266739736606 170 M 95.34421012924616 179 L 100.5403625519528 188 M 100.5403625519528 188 L 110.93266739736606 188 M 110.93266739736606 188 L 116.12881982007269 179 M 116.12881982007269 179 L 126.52112466548596 179 M 126.52112466548596 179 L 131.7172770881926 170 M 147.30573435631248 179 L 142.10958193360585 170 M 126.52112466548596 179 L 131.7172770881926 188 M 131.7172770881926 188 L 142.10958193360585 188 M 142.10958193360585 188 L 147.30573435631248 179 M 147.30573435631248 179 L 157.69803920172575 179 M 157.69803920172575 179 L 162.89419162443238 170 M 178.48264889255228 179 L 173.28649646984564 170 M 157.69803920172575 179 L 162.89419162443238 188 M 162.89419162443238 188 L 173.28649646984564 188 M 173.28649646984564 188 L 178.48264889255228 179 M 194.07110616067217 170 L 188.87495373796554 161 M 178.48264889255228 179 L 188.87495373796554 179 M 188.87495373796554 179 L 194.07110616067217 170 M 22.598076211353316 179 L 17.401923788646684 188 M 17.401923788646684 188 L 22.598076211353316 197 M 22.598076211353316 197 L 32.99038105676658 197 M 32.99038105676658 197 L 38.18653347947321 188 M 48.578838324886476 188 L 53.77499074759311 197 M 53.77499074759311 197 L 64.16729559300637 197 M 64.16729559300637 197 L 69.363448015713 188 M 79.75575286112627 188 L 84.9519052838329 197 M 84.9519052838329 197 L 95.34421012924616 197 M 95.34421012924616 197 L 100.5403625519528 188 M 110.93266739736606 188 L 116.12881982007269 197 M 116.12881982007269 197 L 126.52112466548596 197 M 126.52112466548596 197 L 131.7172770881926 188 M 142.10958193360585 188 L 147.30573435631248 197 M 147.30573435631248 197 L 157.69803920172575 197 M 157.69803920172575 197 L 162.89419162443238 188 M 194.07110616067217 188 L 188.87495373796554 179 M 173.28649646984564 188 L 178.48264889255228 197 M 178.48264889255228 197 L 188.87495373796554 197 M 188.87495373796554 197 L 194.07110616067217 188" fill="none" stroke="var(--grid-color, #ff6688)" stroke-width="0.3"/>
  <path id="dot" d="M 237.73653347947322 44 A 0.45 0.45 0 1 1 238.6365334794732 44 A 0.45 0.45 0 1 1 237.73653347947322 44 M 232.5403810567666 35 A 0.45 0.45 0 1 1 233.44038105676657 35 A 0.45 0.45 0 1 1 232.5403810567666 35 M 222.14807621135333 35 A 0.45 0.45 0 1 1 223.0480762113533 35 A 0.45 0.45 0 1 1 222.14807621135333 35 M 216.9519237886467 44 A 0.45 0.45 0 1 1 217.85192378864667 44 A 0.45 0.45 0 1 1 216.9519237886467 44 M 222.14807621135333 53 A 0.45 0.45 0 1 1 223.0480762113533 53 A 0.45 0.45 0 1 1 222.14807621135333 53 M 232.5403810567666 53 A 0.45 0.45 0 1 1 233.44038105676657 53 A 0.45 0.45 0 1 1 232.5403810567666 53 M 253.32499074759312 53 A 0.45 0.45 0 1 1 254.2249907475931 53 A 0.45 0.45 0 1 1 253.32499074759312 53 M 248.1288383248865 44 A 0.45 0.45 0 1 1 249.02883832488646 44 A 0.45 0.45 0 1 1 248.1288383248865 44 M 237.73653347947322 62 A 0.45 0.45 0 1 1 238.6365334794732 62 A 0.45 0.45 0 1 1 237.73653347947322 62 M 248.1288383248865 62 A 0.45 0.45 0 1 1 249.02883832488646 62 A 0.45 0.45 0 1 1 248.1288383248865 62 M 268.913448015713 44 A 0.45 0.45 0 1 1 269.813448015713 44 A 0.45 0.45 0 1 1 268.913448015713 44 M 263.7172955930064 35 A 0.45 0.45 0 1 1 264.61729559300636 35 A 0.45 0.45 0 1 1 263.7172955930064 35 M 253.32499074759312 35 A 0.45 0.45 0 1 1 254.2249907475931 35 A 0.45 0.45 0 1 1 253.32499074759312 35 M 263.7172955930064 53 A 0.45 0.45 0 1 1 264.61729559300636 53 A 0.45 0.45 0 1 1 263.7172955930064 53 M 284.5019052838329 53 A 0.45 0.45 0 1 1 285.4019052838329 53 A 0.45 0.45 0 1 1 284.5019052838329 53 M 279.3057528611263 44 A 0.45 0.45 0 1 1 280.20575286112626 44 A 0.45 0.45 0 1 1 279.3057528611263 44 M 268.913448015713 62 A 0.45 0.45 0 1 1 269.813448015713 62 A 0.45 0.45 0 1 1 268.913448015713 62 M 279.3057528611263 62 A 0.45 0.45 0 1 1 280.20575286112626 62 A 0.45 0.45 0 1 1 279.3057528611263 62 M 300.0903625519528 44 A 0.45 0.45 0 1 1 300.9903625519528 44 A 0.45 0.45 0 1 1 300.0903625519528 44 M 294.8942101292462 35 A 0.45 0.45 0 1 1 295.79421012924615 35 A 0.45 0.45 0 1 1 294.8942101292462 35 M 284.5019052838329 35 A 0.45 0.45 0 1 1 285.4019052838329 35 A 0.45 0.45 0 1 1 284.5019052838329 35 M 294.8942101292462 53 A 0.45 0.45 0 1 1 295.79421012924615 53 A 0.45 0.45 0 1 1 294.8942101292462 53 M 315.6788198200727 53 A 0.45 0.45 0 1 1 316.5788198200727 53 A 0.45 0.45 0 1 1 315.6788198200727 53 M 310.4826673973661 44 A 0.45 0.45 0 1 1 311.38266739736605 44 A 0.45 0.45 0 1 1 310.4826673973661 44 M 300.0903625519528 62 A 0.45 0.45 0 1 1 300.9903625519528 62 A 0.45 0.45 0 1 1 300.0903625519528 62 M 310.4826673973661 62 A 0.45 0.45 0 1 1 311.38266739736605 62 A 0.45 0.45 0 1 1 310.4826673973661 62 M 331.2672770881926 44 A 0.45 0.45 0 1 1 332.1672770881926 44 A 0.45 0.45 0 1 1 331.2672770881926 44 M 326.07112466548597 35 A 0.45 0.45 0 1 1 326.97112466548595 35 A 0.45 0.45 0 1 1 326.07112466548597 35 M 315.6788198200727 35 A 0.45 0.45 0 1 1 316.5788198200727 35 A 0.45 0.45 0 1 1 315.6788198200727 35 M 326.07112466548597 53 A 0.45 0.45 0 1 1 326.97112466548595 53 A 0.45 0.45 0 1 1 326.07112466548597 53 M 346.8557343563125 53 A 0.45 0.45 0 1 1 347.7557343563125 53 A 0.45 0.45 0 1 1 346.8557343563125 53 M 341.65958193360586 44 A 0.45 0.45 0 1 1 342.55958193360584 44 A 0.45 0.45 0 1 1 341.65958193360586 44 M 331.2672770881926 62 A 0.45 0.45 0 1 1 332.1672770881926 62 A 0.45 0.45 0 1 1 331.2672770881926 62 M 341.65958193360586 62 A 0.45 0.45 0 1 1 342.55958193360584 62 A 0.45 0.45 0 1 1 341.65958193360586 62 M 362.4441916244324 44 A 0.45 0.45 0 1 1 363.34419162443237 44 A 0.45 0.45 0 1 1 362.4441916244324 44 M 357.24803920172576 35 A 0.45 0.45 0 1 1 358.14803920172574 35 A 0.45 0.45 0 1 1 357.24803920172576 35 M 346.8557343563125 35 A 0.45 0.45 0 1 1 347.7557343563125 35 A 0.45 0.45 0 1 1 346.8557343563125 35 M 357.24803920172576 53 A 0.45 0.45 0 1 1 358.14803920172574 53 A 0.45 0.45 0 1 1 357.24803920172576 53 M 378.0326488925523 53 A 0.45 0.45 0 1 1 378.93264889255227 53 A 0.45 0.45 0 1 1 378.0326488925523 53 M 372.83649646984566 44 A 0.45 0.45 0 1 1 373.73649646984563 44 A 0.45 0.45 0 1 1 372.83649646984566 44 M 362.4441916244324 62 A 0.45 0.45 0 1 1 363.34419162443237 62 A 0.45 0.45 0 1 1 362.4441916244324 62 M 372.83649646984566 62 A 0.45 0.45 0 1 1 373.73649646984563 62 A 0.45 0.45 0 1 1 372.83649646984566 62 M 393.6211061606722 44 A 0.45 0.45 0 1 1 394.52110616067216 44 A 0.45 0.45 0 1 1 393.6211061606722 44 M 388.42495373796555 35 A 0.45 0.45 0 1 1 389.32495373796553 35 A 0.45 0.45 0 1 1 388.42495373796555 35 M 378.0326488925523 35 A 0.45 0.45 0 1 1 378.93264889255227 35 A 0.45 0.45 0 1 1 378.0326488925523 35 M 388.42495373796555 53 A 0.45 0.45 0 1 1 389.32495373796553 53 A 0.45 0.45 0 1 1 388.42495373796555 53 M 216.9519237886467 62 A 0.45 0.45 0 1 1 217.85192378864667 62 A 0.45 0.45 0 1 1 216.9519237886467 62 M 222.14807621135333 71 A 0.45 0.45 0 1 1 223.0480762113533 71 A 0.45 0.45 0 1 1 222.14807621135333 71 M 232.5403810567666 71 A 0.45 0.45 0 1 1 233.44038105676657 71 A 0.45 0.45 0 1 1 232.5403810567666 71 M 253.32499074759312 71 A 0.45 0.45 0 1 1 254.2249907475931 71 A 0.45 0.45 0 1 1 253.32499074759312 71 M 237.73653347947322 80 A 0.45 0.45 0 1 1 238.6365334794732 80 A 0.45 0.45 0 1 1 237.73653347947322 80 M 248.1288383248865 80 A 0.45 0.45 0 1 1 249.02883832488646 80 A 0.45 0.45 0 1 1 248.1288383248865 80 M 263.7172955930064 71 A 0.45 0.45 0 1 1 264.61729559300636 71 A 0.45 0.45 0 1 1 263.7172955930064 71 M 284.5019052838329 71 A 0.45 0.45 0 1 1 285.4019052838329 71 A 0.45 0.45 0 1 1 284.5019052838329 71 M 268.913448015713 80 A 0.45 0.45 0 1 1 269.813448015713 80 A 0.45 0.45 0 1 1 268.913448015713 80 M 279.3057528611263 80 A 0.45 0.45 0 1 1 280.20575286112626 80 A 0.45 0.45 0 1 1 279.3057528611263 80 M 294.8942101292462 71 A 0.45 0.45 0 1 1 295.79421012924615 71 A 0.45 0.45 0 1 1 294.8942101292462 71 M 315.6788198200727 71 A 0.45 0.45 0 1 1 316.5788198200727 71 A 0.45 0.45 0 1 1 315.6788198200727 71 M 300.0903625519528 80 A 0.45 0.45 0 1 1 300.9903625519528 80 A 0.45 0.45 0 1 1 300.0903625519528 80 M 310.4826673973661 80 A 0.45 0.45 0 1 1 311.38266739736605 80 A 0.45 0.45 0 1 1 310.4826673973661 80 M 326.07112466548597 71 A 0.45 0.45 0 1 1 326.97112466548595 71 A 0.45 0.45 0 1 1 326.07112466548597 71 M 346.8557343563125 71 A 0.45 0.45 0 1 1 347.7557343563125 71 A 0.45 0.45 0 1 1 346.8557343563125 71 M 331.2672770881926 80 A 0.45 0.45 0 1 1 332.1672770881926 80 A 0.45 0.45 0 1 1 331.2672770881926 80 M 341.65958193360586 80 A 0.45 0.45 0 1 1 342.55958193360584 80 A 0.45 0.45 0 1 1 341.65958193360586 80 M 357.24803920172576 71 A 0.45 0.45 0 1 1 358.14803920172574 71 A 0.45 0.45 0 1 1 357.24803920172576 71 M 378.0326488925523 71 A 0.45 0.45 0 1 1 378.93264889255227 71 A 0.45 0.45 0 1 1 378.0326488925523 71 M 362.4441916244324 80 A 0.45 0.45 0 1 1 363.34419162443237 80 A 0.45 0.45 0 1 1 362.4441916244324 80 M 372.83649646984566 80 A 0.45 0.45 0 1 1 373.73649646984563 80 A 0.45 0.45 0 1 1 372.83649646984566 80 M 393.6211061606722 62 A 0.45 0.45 0 1 1 394.52110616067216 62 A 0.45 0.45 0 1 1 393.6211061606722 62 M 388.42495373796555 71 A 0.45 0.45 0 1 1 389.32495373796553 71 A 0.45 0.45 0 1 1 388.42495373796555 71 M 216.9519237886467 80 A 0.45 0.45 0 1 1 217.85192378864667 80 A 0.45 0.45 0 1 1 216.9519237886467 80 M 222.14807621135333 89 A 0.45 0.45 0 1 1 223.0480762113533 89 A 0.45 0.45 0 1 1 222.14807621135333 89 M 232.5403810567666 89 A 0.45 0.45 0 1 1 233.44038105676657 89 A 0.45 0.45 0 1 1 232.5403810567666 89 M 253.32499074759312 89 A 0.45 0.45 0 1 1 254.2249907475931 89 A 0.45 0.45 0 1 1 253.32499074759312 89 M 237.73653347947322 98 A 0.45 0.45 0 1 1 238.6365334794732 98 A 0.45 0.45 0 1 1 237.73653347947322 98 M 248.1288383248865 98 A 0.45 0.45 0 1 1 249.02883832488646 98 A 0.45 0.45 0 1 1 248.1288383248865 98 M 263.7172955930064 89 A 0.45 0.45 0 1 1 264.61729559300636 89 A 0.45 0.45 0 1 1 263.7172955930064 89 M 284.5019052838329 89 A 0.45 0.45 0 1 1 285.4019052838329 89 A 0.45 0.45 0 1 1 284.5019052838329 89 M 268.913448015713 98 A 0.45 0.45 0 1 1 269.813448015713 98 A 0.45 0.45 0 1 1 268.913448015713 98 M 279.3057528611263 98 A 0.45 0.45 0 1 1 280.20575286112626 98 A 0.45 0.45 0 1 1 279.3057528611263 98 M 294.8942101292462 89 A 0.45 0.45 0 1 1 295.79421012924615 89 A 0.45 0.45 0 1 1 294.8942101292462 89 M 315.6788198200727 89 A 0.45 0.45 0 1 1 316.5788198200727 89 A 0.45 0.45 0 1 1 315.6788198200727 89 M 300.0903625519528 98 A 0.45 0.45 0 1 1 300.9903625519528 98 A 0.45 0.45 0 1 1 300.0903625519528 98 M 310.4826673973661 98 A 0.45 0.45 0 1 1 311.38266739736605 98 A 0.45 0.45 0 1 1 310.4826673973661 98 M 326.07112466548597 89 A 0.45 0.45 0 1 1 326.97112466548595 89 A 0.45 0.45 0 1 1 326.07112466548597 89 M 346.8557343563125 89 A 0.45 0.45 0 1 1 347.7557343563125 89 A 0.45 0.45 0 1 1 346.8557343563125 89 M 331.2672770881926 98 A 0.45 0.45 0 1 1 332.1672770881926 98 A 0.45 0.45 0 1 1 331.2672770881926 98 M 341.65958193360586 98 A 0.45 0.45 0 1 1 342.55958193360584 98 A 0.45 0.45 0 1 1 341.65958193360586 98 M 357.24803920172576 89 A 0.45 0.45 0 1 1 358.14803920172574 89 A 0.45 0.45 0 1 1 357.24803920172576 89 M 378.0326488925523 89 A 0.45 0.45 0 1 1 378.93264889255227 89 A 0.45 0.45 0 1 1 378.0326488925523 89 M 362.4441916244324 98 A 0.45 0.45 0 1 1 363.34419162443237 98 A 0.45 0.45 0 1 1 362.4441916244324 98 M 372.83649646984566 98 A 0.45 0.45 0 1 1 373.73649646984563 98 A 0.45 0.45 0 1 1 372.83649646984566 98 M 393.6211061606722 80 A 0.45 0.45 0 1 1 394.52110616067216 80 A 0.45 0.45 0 1 1 393.6211061606722 80 M 388.42495373796555 89 A 0.45 0.45 0 1 1 389.32495373796553 89 A 0.45 0.45 0 1 1 388.42495373796555 89 M 216.9519237886467 98 A 0.45 0.45 0 1 1 217.85192378864667 98 A 0.45 0.45 0 1 1 216.9519237886467 98 M 222.14807621135333 107 A 0.45 0.45 0 1 1 223.0480762113533 107 A 0.45 0.45 0 1 1 222.14807621135333 107 M 232.5403810567666 107 A 0.45 0.45 0 1 1 233.44038105676657 107 A 0.45 0.45 0 1 1 232.5403810567666 107 M 253.32499074759312 107 A 0.45 0.45 0 1 1 254.2249907475931 107 A 0.45 0.45 0 1 1 253.32499074759312 107 M 237.73653347947322 116 A 0.45 0.45 0 1 1 238.6365334794732 116 A 0.45 0.45 0 1 1 237.73653347947322 116 M 248.1288383248865 116 A 0.45 0.45 0 1 1 249.02883832488646 116 A 0.45 0.45 0 1 1 248.1288383248865 116 M 263.7172955930064 107 A 0.45 0.45 0 1 1 264.61729559300636 107 A 0.45 0.45 0 1 1 263.7172955930064 107 M 284.5019052838329 107 A 0.45 0.45 0 1 1 285.4019052838329 107 A 0.45 0.45 0 1 1 284.5019052838329 107 M 268.913448015713 116 A 0.45 0.45 0 1 1 269.813448015713 116 A 0.45 0.45 0 1 1 268.913448015713 116 M 279.3057528611263 116 A 0.45 0.45 0 1 1 280.20575286112626 116 A 0.45 0.45 0 1 1 279.3057528611263 116 M 294.8942101292462 107 A 0.45 0.45 0 1 1 295.79421012924615 107 A 0.45 0.45 0 1 1 294.8942101292462 107 M 315.6788198200727 107 A 0.45 0.45 0 1 1 316.5788198200727 107 A 0.45 0.45 0 1 1 315.6788198200727 107 M 300.0903625519528 116 A 0.45 0.45 0 1 1 300.9903625519528 116 A 0.45 0.45 0 1 1 300.0903625519528 116 M 310.4826673973661 116 A 0.45 0.45 0 1 1 311.38266739736605 116 A 0.45 0.45 0 1 1 310.4826673973661 116 M 326.07112466548597 107 A 0.45 0.45 0 1 1 326.97112466548595 107 A 0.45 0.45 0 1 1 326.07112466548597 107 M 346.8557343563125 107 A 0.45 0.45 0 1 1 347.7557343563125 107 A 0.45 0.45 0 1 1 346.8557343563125 107 M 331.2672770881926 116 A 0.45 0.45 0 1 1 332.1672770881926 116 A 0.45 0.45 0 1 1 331.2672770881926 116 M 341.65958193360586 116 A 0.45 0.45 0 1 1 342.55958193360584 116 A 0.45 0.45 0 1 1 341.65958193360586 116 M 357.24803920172576 107 A 0.45 0.45 0 1 1 358.14803920172574 107 A 0.45 0.45 0 1 1 357.24803920172576 107 M 378.0326488925523 107 A 0.45 0.45 0 1 1 378.93264889255227 107 A 0.45 0.45 0 1 1 378.0326488925523 107 M 362.4441916244324 116 A 0.45 0.45 0 1 1 363.34419162443237 116 A 0.45 0.45 0 1 1 362.4441916244324 116 M 372.83649646984566 116 A 0.45 0.45 0 1 1 373.73649646984563 116 A 0.45 0.45 0 1 1 372.83649646984566 116 M 393.6211061606722 98 A 0.45 0.45 0 1 1 394.52110616067216 98 A 0.45 0.45 0 1 1 393.6211061606722 98 M 388.42495373796555 107 A 0.45 0.45 0 1 1 389.32495373796553 107 A 0.45 0.45 0 1 1 388.42495373796555 107 M 216.9519237886467 116 A 0.45 0.45 0 1 1 217.85192378864667 116 A 0.45 0.45 0 1 1 216.9519237886467 116 M 222.14807621135333 125 A 0.45 0.45 0 1 1 223.0480762113533 125 A 0.45 0.45 0 1 1 222.14807621135333 125 M 232.5403810567666 125 A 0.45 0.45 0 1 1 233.44038105676657 125 A 0.45 0.45 0 1 1 232.5403810567666 125 M 253.32499074759312 125 A 0.45 0.45 0 1 1 254.2249907475931 125 A 0.45 0.45 0 1 1 253.32499074759312 125 M 237.73653347947322 134 A 0.45 0.45 0 1 1 238.6365334794732 134 A 0.45 0.45 0 1 1 237.73653347947322 134 M 248.1288383248865 134 A 0.45 0.45 0 1 1 249.02883832488646 134 A 0.45 0.45 0 1 1 248.1288383248865 134 M 263.7172955930064 125 A 0.45 0.45 0 1 1 264.61729559300636 125 A 0.45 0.45 0 1 1 263.7172955930064 125 M 284.5019052838329 125 A 0.45 0.45 0 1 1 285.4019052838329 125 A 0.45 0.45 0 1 1 284.5019052838329 125 M 268.913448015713 134 A 0.45 0.45 0 1 1 269.813448015713 134 A 0.45 0.45 0 1 1 268.913448015713 134 M 279.3057528611263 134 A 0.45 0.45 0 1 1 280.20575286112626 134 A 0.45 0.45 0 1 1 279.3057528611263 134 M 294.8942101292462 125 A 0.45 0.45 0 1 1 295.79421012924615 125 A 0.45 0.45 0 1 1 294.8942101292462 125 M 315.6788198200727 125 A 0.45 0.45 0 1 1 316.5788198200727 125 A 0.45 0.45 0 1 1 315.6788198200727 125 M 300.0903625519528 134 A 0.45 0.45 0 1 1 300.9903625519528 134 A 0.45 0.45 0 1 1 300.0903625519528 134 M 310.4826673973661 134 A 0.45 0.45 0 1 1 311.38266739736605 134 A 0.45 0.45 0 1 1 310.4826673973661 134 M 326.07112466548597 125 A 0.45 0.45 0 1 1 326.97112466548595 125 A 0.45 0.45 0 1 1 326.07112466548597 125 M 346.8557343563125 125 A 0.45 0.45 0 1 1 347.7557343563125 125 A 0.45 0.45 0 1 1 346.8557343563125 125 M 331.2672770881926 134 A 0.45 0.45 0 1 1 332.1672770881926 134 A 0.45 0.45 0 1 1 331.2672770881926 134 M 341.65958193360586 134 A 0.45 0.45 0 1 1 342.55958193360584 134 A 0.45 0.45 0 1 1 341.65958193360586 134 M 357.24803920172576 125 A 0.45 0.45 0 1 1 358.14803920172574 125 A 0.45 0.45 0 1 1 357.24803920172576 125 M 378.0326488925523 125 A 0.45 0.45 0 1 1 378.93264889255227 125 A 0.45 0.45 0 1 1 378.0326488925523 125 M 362.4441916244324 134 A 0.45 0.45 0 1 1 363.34419162443237 134 A 0.45 0.45 0 1 1 362.4441916244324 134 M 372.83649646984566 134 A 0.45 0.45 0 1 1 373.73649646984563 134 A 0.45 0.45 0 1 1 372.83649646984566 134 M 393.6211061606722 116 A 0.45 0.45 0 1 1 394.52110616067216 116 A 0.45 0.45 0 1 1 393.6211061606722 116 M 388.42495373796555 125 A 0.45 0.45 0 1 1 389.32495373796553 125 A 0.45 0.45 0 1 1 388.42495373796555 125 M 216.9519237886467 134 A 0.45 0.45 0 1 1 217.85192378864667 134 A 0.45 0.45 0 1 1 216.9519237886467 134 M 222.14807621135333 143 A 0.45 0.45 0 1 1 223.0480762113533 143 A 0.45 0.45 0 1 1 222.14807621135333 143 M 232.5403810567666 143 A 0.45 0.45 0 1 1 233.44038105676657 143 A 0.45 0.45 0 1 1 232.5403810567666 143 M 253.32499074759312 143 A 0.45 0.45 0 1 1 254.2249907475931 143 A 0.45 0.45 0 1 1 253.32499074759312 143 M 237.73653347947322 152 A 0.45 0.45 0 1 1 238.6365334794732 152 A 0.45 0.45 0 1 1 237.73653347947322 152 M 248.1288383248865 152 A 0.45 0.45 0 1 1 249.02883832488646 152 A 0.45 0.45 0 1 1 248.1288383248865 152 M 263.7172955930064 143 A 0.45 0.45 0 1 1 264.61729559300636 143 A 0.45 0.45 0 1 1 263.7172955930064 143 M 284.5019052838329 143 A 0.45 0.45 0 1 1 285.4019052838329 143 A 0.45 0.45 0 1 1 284.5019052838329 143 M 268.913448015713 152 A 0.45 0.45 0 1 1 269.813448015713 152 A 0.45 0.45 0 1 1 268.913448015713 152 M 279.3057528611263 152 A 0.45 0.45 0 1 1 280.20575286112626 152 A 0.45 0.45 0 1 1 279.3057528611263 152 M 294.8942101292462 143 A 0.45 0.45 0 1 1 295.79421012924615 143 A 0.45 0.45 0 1 1 294.8942101292462 143 M 315.6788198200727 143 A 0.45 0.45 0 1 1 316.5788198200727 143 A 0.45 0.45 0 1 1 315.6788198200727 143 M 300.0903625519528 152 A 0.45 0.45 0 1 1 300.9903625519528 152 A 0.45 0.45 0 1 1 300.0903625519528 152 M 310.4826673973661 152 A 0.45 0.45 0 1 1 311.38266739736605 152 A 0.45 0.45 0 1 1 310.4826673973661 152 M 326.07112466548597 143 A 0.45 0.45 0 1 1 326.97112466548595 143 A 0.45 0.45 0 1 1 326.07112466548597 143 M 346.8557343563125 143 A 0.45 0.45 0 1 1 347.7557343563125 143 A 0.45 0.45 0 1 1 346.8557343563125 143 M 331.2672770881926 152 A 0.45 0.45 0 1 1 332.1672770881926 152 A 0.45 0.45 0 1 1 331.2672770881926 152 M 341.65958193360586 152 A 0.45 0.45 0 1 1 342.55958193360584 152 A 0.45 0.45 0 1 1 341.65958193360586 152 M 357.24803920172576 143 A 0.45 0.45 0 1 1 358.14803920172574 143 A 0.45 0.45 0 1 1 357.24803920172576 143 M 378.0326488925523 143 A 0.45 0.45 0 1 1 378.93264889255227 143 A 0.45 0.45 0 1 1 378.0326488925523 143 M 362.4441916244324 152 A 0.45 0.45 0 1 1 363.34419162443237 152 A 0.45 0.45 0 1 1 362.4441916244324 152 M 372.83649646984566 152 A 0.45 0.45 0 1 1 373.73649646984563 152 A 0.45 0.45 0 1 1 372.83649646984566 152 M 393.6211061606722 134 A 0.45 0.45 0 1 1 394.52110616067216 134 A 0.45 0.45 0 1 1 393.6211061606722 134 M 388.42495373796555 143 A 0.45 0.45 0 1 1 389.32495373796553 143 A 0.45 0.45 0 1 1 388.42495373796555 143 M 216.9519237886467 152 A 0.45 0.45 0 1 1 217.85192378864667 152 A 0.45 0.45 0 1 1 216.9519237886467 152 M 222.14807621135333 161 A 0.45 0.45 0 1 1 223.0480762113533 161 A 0.45 0.45 0 1 1 222.14807621135333 161 M 232.5403810567666 161 A 0.45 0.45 0 1 1 233.44038105676657 161 A 0.45 0.45 0 1 1 232.5403810567666 161 M 253.32499074759312 161 A 0.45 0.45 0 1 1 254.2249907475931 161 A 0.45 0.45 0 1 1 253.32499074759312 161 M 237.73653347947322 170 A 0.45 0.45 0 1 1 238.6365334794732 170 A 0.45 0.45 0 1 1 237.73653347947322 170 M 248.1288383248865 170 A 0.45 0.45 0 1 1 249.02883832488646 170 A 0.45 0.45 0 1 1 248.1288383248865 170 M 263.7172955930064 161 A 0.45 0.45 0 1 1 264.61729559300636 161 A 0.45 0.45 0 1 1 263.7172955930064 161 M 284.5019052838329 161 A 0.45 0.45 0 1 1 285.4019052838329 161 A 0.45 0.45 0 1 1 284.5019052838329 161 M 268.913448015713 170 A 0.45 0.45 0 1 1 269.813448015713 170 A 0.45 0.45 0 1 1 268.913448015713 170 M 279.3057528611263 170 A 0.45 0.45 0 1 1 280.20575286112626 170 A 0.45 0.45 0 1 1 279.3057528611263 170 M 294.8942101292462 161 A 0.45 0.45 0 1 1 295.79421012924615 161 A 0.45 0.45 0 1 1 294.8942101292462 161 M 315.6788198200727 161 A 0.45 0.45 0 1 1 316.5788198200727 161 A 0.45 0.45 0 1 1 315.6788198200727 161 M 300.0903625519528 170 A 0.45 0.45 0 1 1 300.9903625519528 170 A 0.45 0.45 0 1 1 300.0903625519528 170 M 310.4826673973661 170 A 0.45 0.45 0 1 1 311.38266739736605 170 A 0.45 0.45 0 1 1 310.4826673973661 170 M 326.07112466548597 161 A 0.45 0.45 0 1 1 326.97112466548595 161 A 0.45 0.45 0 1 1 326.07112466548597 161 M 346.8557343563125 161 A 0.45 0.45 0 1 1 347.7557343563125 161 A 0.45 0.45 0 1 1 346.8557343563125 161 M 331.2672770881926 170 A 0.45 0.45 0 1 1 332.1672770881926 170 A 0.45 0.45 0 1 1 331.2672770881926 170 M 341.65958193360586 170 A 0.45 0.45 0 1 1 342.55958193360584 170 A 0.45 0.45 0 1 1 341.65958193360586 170 M 357.24803920172576 161 A 0.45 0.45 0 1 1 358.14803920172574 161 A 0.45 0.45 0 1 1 357.24803920172576 161 M 378.0326488925523 161 A 0.45 0.45 0 1 1 378.93264889255227 161 A 0.45 0.45 0 1 1 378.0326488925523 161 M 362.4441916244324 170 A 0.45 0.45 0 1 1 363.34419162443237 170 A 0.45 0.45 0 1 1 362.4441916244324 170 M 372.83649646984566 170 A 0.45 0.45 0 1 1 373.73649646984563 170 A 0.45 0.45 0 1 1 372.83649646984566 170 M 393.6211061606722 152 A 0.45 0.45 0 1 1 394.52110616067216 152 A 0.45 0.45 0 1 1 393.6211061606722 152 M 388.42495373796555 161 A 0.45 0.45 0 1 1 389.32495373796553 161 A 0.45 0.45 0 1 1 388.42495373796555 161 M 216.9519237886467 170 A 0.45 0.45 0 1 1 217.85192378864667 170 A 0.45 0.45 0 1 1 216.9519237886467 170 M 222.14807621135333 179 A 0.45 0.45 0 1 1 223.0480762113533 179 A 0.45 0.45 0 1 1 222.14807621135333 179 M 232.5403810567666 179 A 0.45 0.45 0 1 1 233.44038105676657 179 A 0.45 0.45 0 1 1 232.5403810567666 179 M 253.32499074759312 179 A 0.45 0.45 0 1 1 254.2249907475931 179 A 0.45 0.45 0 1 1 253.32499074759312 179 M 237.73653347947322 188 A 0.45 0.45 0 1 1 238.6365334794732 188 A 0.45 0.45 0 1 1 237.73653347947322 188 M 248.1288383248865 188 A 0.45 0.45 0 1 1 249.02883832488646 188 A 0.45 0.45 0 1 1 248.1288383248865 188 M 263.7172955930064 179 A 0.45 0.45 0 1 1 264.61729559300636 179 A 0.45 0.45 0 1 1 263.7172955930064 179 M 284.5019052838329 179 A 0.45 0.45 0 1 1 285.4019052838329 179 A 0.45 0.45 0 1 1 284.5019052838329 179 M 268.913448015713 188 A 0.45 0.45 0 1 1 269.813448015713 188 A 0.45 0.45 0 1 1 268.913448015713 188 M 279.3057528611263 188 A 0.45 0.45 0 1 1 280.20575286112626 188 A 0.45 0.45 0 1 1 279.3057528611263 188 M 294.8942101292462 179 A 0.45 0.45 0 1 1 295.79421012924615 179 A 0.45 0.45 0 1 1 294.8942101292462 179 M 315.6788198200727 179 A 0.45 0.45 0 1 1 316.5788198200727 179 A 0.45 0.45 0 1 1 315.6788198200727 179 M 300.0903625519528 188 A 0.45 0.45 0 1 1 300.9903625519528 188 A 0.45 0.45 0 1 1 300.0903625519528 188 M 310.4826673973661 188 A 0.45 0.45 0 1 1 311.38266739736605 188 A 0.45 0.45 0 1 1 310.4826673973661 188 M 326.07112466548597 179 A 0.45 0.45 0 1 1 326.97112466548595 179 A 0.45 0.45 0 1 1 326.07112466548597 179 M 346.8557343563125 179 A 0.45 0.45 0 1 1 347.7557343563125 179 A 0.45 0.45 0 1 1 346.8557343563125 179 M 331.2672770881926 188 A 0.45 0.45 0 1 1 332.1672770881926 188 A 0.45 0.45 0 1 1 331.2672770881926 188 M 341.65958193360586 188 A 0.45 0.45 0 1 1 342.55958193360584 188 A 0.45 0.45 0 1 1 341.65958193360586 188 M 357.24803920172576 179 A 0.45 0.45 0 1 1 358.14803920172574 179 A 0.45 0.45 0 1 1 357.24803920172576 179 M 378.0326488925523 179 A 0.45 0.45 0 1 1 378.93264889255227 179 A 0.45 0.45 0 1 1 378.0326488925523 179 M 362.4441916244324 188 A 0.45 0.45 0 1 1 363.34419162443237 188 A 0.45 0.45 0 1 1 362.4441916244324 188 M 372.83649646984566 188 A 0.45 0.45 0 1 1 373.73649646984563 188 A 0.45 0.45 0 1 1 372.83649646984566 188 M 393.6211061606722 170 A 0.45 0.45 0 1 1 394.52110616067216 170 A 0.45 0.45 0 1 1 393.6211061606722 170 M 388.42495373796555 179 A 0.45 0.45 0 1 1 389.32495373796553 179 A 0.45 0.45 0 1 1 388.42495373796555 179 M 216.9519237886467 188 A 0.45 0.45 0 1 1 217.85192378864667 188 A 0.45 0.45 0 1 1 216.9519237886467 188 M 222.14807621135333 197 A 0.45 0.45 0 1 1 223.0480762113533 197 A 0.45 0.45 0 1 1 222.14807621135333 197 M 232.5403810567666 197 A 0.45 0.45 0 1 1 233.44038105676657 197 A 0.45 0.45 0 1 1 232.5403810567666 197 M 253.32499074759312 197 A 0.45 0.45 0 1 1 254.2249907475931 197 A 0.45 0.45 0 1 1 253.32499074759312 197 M 263.7172955930064 197 A 0.45 0.45 0 1 1 264.61729559300636 197 A 0.45 0.45 0 1 1 263.7172955930064 197 M 284.5019052838329 197 A 0.45 0.45 0 1 1 285.4019052838329 197 A 0.45 0.45 0 1 1 284.5019052838329 197 M 294.8942101292462 197 A 0.45 0.45 0 1 1 295.79421012924615 197 A 0.45 0.45 0 1 1 294.8942101292462 197 M 315.6788198200727 197 A 0.45 0.45 0 1 1 316.5788198200727 197 A 0.45 0.45 0 1 1 315.6788198200727 197 M 326.07112466548597 197 A 0.45 0.45 0 1 1 326.97112466548595 197 A 0.45 0.45 0 1 1 326.07112466548597 197 M 346.8557343563125 197 A 0.45 0.45 0 1 1 347.7557343563125 197 A 0.45 0.45 0 1 1 346.8557343563125 197 M 357.24803920172576 197 A 0.45 0.45 0 1 1 358.14803920172574 197 A 0.45 0.45 0 1 1 357.24803920172576 197 M 393.6211061606722 188 A 0.45 0.45 0 1 1 394.52110616067216 188 A 0.45 0.45 0 1 1 393.6211061606722 188 M 378.0326488925523 197 A 0.45 0.45 0 1 1 378.93264889255227 197 A 0.45 0.45 0 1 1 378.0326488925523 197 M 388.42495373796555 197 A 0.45 0.45 0 1 1 389.32495373796553 197 A 0.45 0.45 0 1 1 388.42495373796555 197" fill="oklch(from var(--grid-color, #ff6688) l c calc(h + 90))" stroke="oklch(from var(--grid-color, #ff6688) l c calc(h + 90))" stroke-width="0.3"/>
  <path id="int" d="M 38.18653347947321 239 L 37.511533479473215 237.830865704891 M 38.18653347947321 239 L 37.511533479473215 240.169134295109 M 38.18653347947321 239 L 39.53653347947321 239 M 32.99038105676658 230 L 33.66538105676658 231.169134295109 M 32.99038105676658 230 L 31.64038105676658 230 M 22.598076211353316 230 L 23.948076211353317 230 M 22.598076211353316 230 L 21.923076211353315 231.169134295109 M 17.401923788646684 239 L 18.076923788646685 237.830865704891 M 17.401923788646684 239 L 18.076923788646685 240.169134295109 M 22.598076211353316 248 L 21.923076211353315 246.830865704891 M 22.598076211353316 248 L 23.948076211353317 248 M 22.598076211353316 248 L 21.923076211353315 249.169134295109 M 32.99038105676658 248 L 31.64038105676658 248 M 32.99038105676658 248 L 33.66538105676658 246.830865704891 M 32.99038105676658 248 L 33.66538105676658 249.169134295109 M 53.77499074759311 248 L 53.09999074759311 246.830865704891 M 53.77499074759311 248 L 53.09999074759311 249.169134295109 M 53.77499074759311 248 L 55.12499074759311 248 M 48.578838324886476 239 L 49.25383832488647 240.169134295109 M 48.578838324886476 239 L 47.228838324886475 239 M 48.578838324886476 239 L 49.25383832488647 237.830865704891 M 38.18653347947321 257 L 37.511533479473215 255.830865704891 M 38.18653347947321 257 L 39.53653347947321 257 M 38.18653347947321 257 L 37.511533479473215 258.169134295109 M 48.578838324886476 257 L 47.228838324886475 257 M 48.578838324886476 257 L 49.25383832488647 255.830865704891 M 48.578838324886476 257 L 49.25383832488647 258.169134295109 M 69.363448015713 239 L 68.688448015713 237.830865704891 M 69.363448015713 239 L 68.688448015713 240.169134295109 M 69.363448015713 239 L 70.713448015713 239 M 64.16729559300637 230 L 64.84229559300637 231.169134295109 M 64.16729559300637 230 L 62.81729559300637 230 M 53.77499074759311 230 L 55.12499074759311 230 M 53.77499074759311 230 L 53.09999074759311 231.169134295109 M 64.16729559300637 248 L 62.81729559300637 248 M 64.16729559300637 248 L 64.84229559300637 246.830865704891 M 64.16729559300637 248 L 64.84229559300637 249.169134295109 M 84.9519052838329 248 L 84.2769052838329 246.830865704891 M 84.9519052838329 248 L 84.2769052838329 249.169134295109 M 84.9519052838329 248 L 86.3019052838329 248 M 79.75575286112627 239 L 80.43075286112627 240.169134295109 M 79.75575286112627 239 L 78.40575286112627 239 M 79.75575286112627 239 L 80.43075286112627 237.830865704891 M 69.363448015713 257 L 68.688448015713 255.830865704891 M 69.363448015713 257 L 70.713448015713 257 M 69.363448015713 257 L 68.688448015713 258.169134295109 M 79.75575286112627 257 L 78.40575286112627 257 M 79.75575286112627 257 L 80.43075286112627 255.830865704891 M 79.75575286112627 257 L 80.43075286112627 258.169134295109 M 100.5403625519528 239 L 99.8653625519528 237.830865704891 M 100.5403625519528 239 L 99.8653625519528 240.169134295109 M 100.5403625519528 239 L 101.89036255195279 239 M 95.34421012924616 230 L 96.01921012924616 231.169134295109 M 95.34421012924616 230 L 93.99421012924617 230 M 84.9519052838329 230 L 86.3019052838329 230 M 84.9519052838329 230 L 84.2769052838329 231.169134295109 M 95.34421012924616 248 L 93.99421012924617 248 M 95.34421012924616 248 L 96.01921012924616 246.830865704891 M 95.34421012924616 248 L 96.01921012924616 249.169134295109 M 116.12881982007269 248 L 115.4538198200727 246.830865704891 M 116.12881982007269 248 L 115.4538198200727 249.169134295109 M 116.12881982007269 248 L 117.47881982007269 248 M 110.93266739736606 239 L 111.60766739736606 240.169134295109 M 110.93266739736606 239 L 109.58266739736607 239 M 110.93266739736606 239 L 111.60766739736606 237.830865704891 M 100.5403625519528 257 L 99.8653625519528 255.830865704891 M 100.5403625519528 257 L 101.89036255195279 257 M 100.5403625519528 257 L 99.8653625519528 258.169134295109 M 110.93266739736606 257 L 109.58266739736607 257 M 110.93266739736606 257 L 111.60766739736606 255.830865704891 M 110.93266739736606 257 L 111.60766739736606 258.169134295109 M 131.7172770881926 239 L 131.04227708819258 237.830865704891 M 131.7172770881926 239 L 131.04227708819258 240.169134295109 M 131.7172770881926 239 L 133.06727708819258 239 M 126.52112466548596 230 L 127.19612466548595 231.169134295109 M 126.52112466548596 230 L 125.17112466548596 230 M 116.12881982007269 230 L 117.47881982007269 230 M 116.12881982007269 230 L 115.4538198200727 231.169134295109 M 126.52112466548596 248 L 125.17112466548596 248 M 126.52112466548596 248 L 127.19612466548595 246.830865704891 M 126.52112466548596 248 L 127.19612466548595 249.169134295109 M 147.30573435631248 248 L 146.63073435631247 246.830865704891 M 147.30573435631248 248 L 146.63073435631247 249.169134295109 M 147.30573435631248 248 L 148.65573435631248 248 M 142.10958193360585 239 L 142.78458193360586 240.169134295109 M 142.10958193360585 239 L 140.75958193360586 239 M 142.10958193360585 239 L 142.78458193360586 237.830865704891 M 131.7172770881926 257 L 131.04227708819258 255.830865704891 M 131.7172770881926 257 L 133.06727708819258 257 M 131.7172770881926 257 L 131.04227708819258 258.169134295109 M 142.10958193360585 257 L 140.75958193360586 257 M 142.10958193360585 257 L 142.78458193360586 255.830865704891 M 142.10958193360585 257 L 142.78458193360586 258.169134295109 M 162.89419162443238 239 L 162.21919162443237 237.830865704891 M 162.89419162443238 239 L 162.21919162443237 240.169134295109 M 162.89419162443238 239 L 164.24419162443237 239 M 157.69803920172575 230 L 158.37303920172576 231.169134295109 M 157.69803920172575 230 L 156.34803920172575 230 M 147.30573435631248 230 L 148.65573435631248 230 M 147.30573435631248 230 L 146.63073435631247 231.169134295109 M 157.69803920172575 248 L 156.34803920172575 248 M 157.69803920172575 248 L 158.37303920172576 246.830865704891 M 157.69803920172575 248 L 158.37303920172576 249.169134295109 M 178.48264889255228 248 L 177.80764889255227 246.830865704891 M 178.48264889255228 248 L 177.80764889255227 249.169134295109 M 178.48264889255228 248 L 179.83264889255227 248 M 173.28649646984564 239 L 173.96149646984566 240.169134295109 M 173.28649646984564 239 L 171.93649646984565 239 M 173.28649646984564 239 L 173.96149646984566 237.830865704891 M 162.89419162443238 257 L 162.21919162443237 255.830865704891 M 162.89419162443238 257 L 164.24419162443237 257 M 162.89419162443238 257 L 162.21919162443237 258.169134295109 M 173.28649646984564 257 L 171.93649646984565 257 M 173.28649646984564 257 L 173.96149646984566 255.830865704891 M 173.28649646984564 257 L 173.96149646984566 258.169134295109 M 194.07110616067217 239 L 193.39610616067216 237.830865704891 M 194.07110616067217 239 L 193.39610616067216 240.169134295109 M 188.87495373796554 230 L 189.54995373796555 231.169134295109 M 188.87495373796554 230 L 187.52495373796555 230 M 178.48264889255228 230 L 179.83264889255227 230 M 178.48264889255228 230 L 177.80764889255227 231.169134295109 M 188.87495373796554 248 L 187.52495373796555 248 M 188.87495373796554 248 L 189.54995373796555 246.830865704891 M 188.87495373796554 248 L 189.54995373796555 249.169134295109 M 17.401923788646684 257 L 18.076923788646685 255.830865704891 M 17.401923788646684 257 L 18.076923788646685 258.169134295109 M 22.598076211353316 266 L 21.923076211353315 264.830865704891 M 22.598076211353316 266 L 23.948076211353317 266 M 22.598076211353316 266 L 21.923076211353315 267.169134295109 M 32.99038105676658 266 L 31.64038105676658 266 M 32.99038105676658 266 L 33.66538105676658 264.830865704891 M 32.99038105676658 266 L 33.66538105676658 267.169134295109 M 53.77499074759311 266 L 53.09999074759311 264.830865704891 M 53.77499074759311 266 L 53.09999074759311 267.169134295109 M 53.77499074759311 266 L 55.12499074759311 266 M 38.18653347947321 275 L 37.511533479473215 273.830865704891 M 38.18653347947321 275 L 39.53653347947321 275 M 38.18653347947321 275 L 37.511533479473215 276.169134295109 M 48.578838324886476 275 L 47.228838324886475 275 M 48.578838324886476 275 L 49.25383832488647 273.830865704891 M 48.578838324886476 275 L 49.25383832488647 276.169134295109 M 64.16729559300637 266 L 62.81729559300637 266 M 64.16729559300637 266 L 64.84229559300637 264.830865704891 M 64.16729559300637 266 L 64.84229559300637 267.169134295109 M 84.9519052838329 266 L 84.2769052838329 264.830865704891 M 84.9519052838329 266 L 84.2769052838329 267.169134295109 M 84.9519052838329 266 L 86.3019052838329 266 M 69.363448015713 275 L 68.688448015713 273.830865704891 M 69.363448015713 275 L 70.713448015713 275 M 69.363448015713 275 L 68.688448015713 276.169134295109 M 79.75575286112627 275 L 78.40575286112627 275 M 79.75575286112627 275 L 80.43075286112627 273.830865704891 M 79.75575286112627 275 L 80.43075286112627 276.169134295109 M 95.34421012924616 266 L 93.99421012924617 266 M 95.34421012924616 266 L 96.01921012924616 264.830865704891 M 95.34421012924616 266 L 96.01921012924616 267.169134295109 M 116.12881982007269 266 L 115.4538198200727 264.830865704891 M 116.12881982007269 266 L 115.4538198200727 267.169134295109 M 116.12881982007269 266 L 117.47881982007269 266 M 100.5403625519528 275 L 99.8653625519528 273.830865704891 M 100.5403625519528 275 L 101.89036255195279 275 M 100.5403625519528 275 L 99.8653625519528 276.169134295109 M 110.93266739736606 275 L 109.58266739736607 275 M 110.93266739736606 275 L 111.60766739736606 273.830865704891 M 110.93266739736606 275 L 111.60766739736606 276.169134295109 M 126.52112466548596 266 L 125.17112466548596 266 M 126.52112466548596 266 L 127.19612466548595 264.830865704891 M 126.52112466548596 266 L 127.19612466548595 267.169134295109 M 147.30573435631248 266 L 146.63073435631247 264.830865704891 M 147.30573435631248 266 L 146.63073435631247 267.169134295109 M 147.30573435631248 266 L 148.65573435631248 266 M 131.7172770881926 275 L 131.04227708819258 273.830865704891 M 131.7172770881926 275 L 133.06727708819258 275 M 131.7172770881926 275 L 131.04227708819258 276.169134295109 M 142.10958193360585 275 L 140.75958193360586 275 M 142.10958193360585 275 L 142.78458193360586 273.830865704891 M 142.10958193360585 275 L 142.78458193360586 276.169134295109 M 157.69803920172575 266 L 156.34803920172575 266 M 157.69803920172575 266 L 158.37303920172576 264.830865704891 M 157.69803920172575 266 L 158.37303920172576 267.169134295109 M 178.48264889255228 266 L 177.80764889255227 264.830865704891 M 178.48264889255228 266 L 177.80764889255227 267.169134295109 M 178.48264889255228 266 L 179.83264889255227 266 M 162.89419162443238 275 L 162.21919162443237 273.830865704891 M 162.89419162443238 275 L 164.24419162443237 275 M 162.89419162443238 275 L 162.21919162443237 276.169134295109 M 173.28649646984564 275 L 171.93649646984565 275 M 173.28649646984564 275 L 173.96149646984566 273.830865704891 M 173.28649646984564 275 L 173.96149646984566 276.169134295109 M 194.07110616067217 257 L 193.39610616067216 255.830865704891 M 194.07110616067217 257 L 193.39610616067216 258.169134295109 M 188.87495373796554 266 L 187.52495373796555 266 M 188.87495373796554 266 L 189.54995373796555 264.830865704891 M 188.87495373796554 266 L 189.54995373796555 267.169134295109 M 17.401923788646684 275 L 18.076923788646685 273.830865704891 M 17.401923788646684 275 L 18.076923788646685 276.169134295109 M 22.598076211353316 284 L 21.923076211353315 282.830865704891 M 22.598076211353316 284 L 23.948076211353317 284 M 22.598076211353316 284 L 21.923076211353315 285.169134295109 M 32.99038105676658 284 L 31.64038105676658 284 M 32.99038105676658 284 L 33.66538105676658 282.830865704891 M 32.99038105676658 284 L 33.66538105676658 285.169134295109 M 53.77499074759311 284 L 53.09999074759311 282.830865704891 M 53.77499074759311 284 L 53.09999074759311 285.169134295109 M 53.77499074759311 284 L 55.12499074759311 284 M 38.18653347947321 293 L 37.511533479473215 291.830865704891 M 38.18653347947321 293 L 39.53653347947321 293 M 38.18653347947321 293 L 37.511533479473215 294.169134295109 M 48.578838324886476 293 L 47.228838324886475 293 M 48.578838324886476 293 L 49.25383832488647 291.830865704891 M 48.578838324886476 293 L 49.25383832488647 294.169134295109 M 64.16729559300637 284 L 62.81729559300637 284 M 64.16729559300637 284 L 64.84229559300637 282.830865704891 M 64.16729559300637 284 L 64.84229559300637 285.169134295109 M 84.9519052838329 284 L 84.2769052838329 282.830865704891 M 84.9519052838329 284 L 84.2769052838329 285.169134295109 M 84.9519052838329 284 L 86.3019052838329 284 M 69.363448015713 293 L 68.688448015713 291.830865704891 M 69.363448015713 293 L 70.713448015713 293 M 69.363448015713 293 L 68.688448015713 294.169134295109 M 79.75575286112627 293 L 78.40575286112627 293 M 79.75575286112627 293 L 80.43075286112627 291.830865704891 M 79.75575286112627 293 L 80.43075286112627 294.169134295109 M 95.34421012924616 284 L 93.99421012924617 284 M 95.34421012924616 284 L 96.01921012924616 282.830865704891 M 95.34421012924616 284 L 96.01921012924616 285.169134295109 M 116.12881982007269 284 L 115.4538198200727 282.830865704891 M 116.12881982007269 284 L 115.4538198200727 285.169134295109 M 116.12881982007269 284 L 117.47881982007269 284 M 100.5403625519528 293 L 99.8653625519528 291.830865704891 M 100.5403625519528 293 L 101.89036255195279 293 M 100.5403625519528 293 L 99.8653625519528 294.169134295109 M 110.93266739736606 293 L 109.58266739736607 293 M 110.93266739736606 293 L 111.60766739736606 291.830865704891 M 110.93266739736606 293 L 111.60766739736606 294.169134295109 M 126.52112466548596 284 L 125.17112466548596 284 M 126.52112466548596 284 L 127.19612466548595 282.830865704891 M 126.52112466548596 284 L 127.19612466548595 285.169134295109 M 147.30573435631248 284 L 146.63073435631247 282.830865704891 M 147.30573435631248 284 L 146.63073435631247 285.169134295109 M 147.30573435631248 284 L 148.65573435631248 284 M 131.7172770881926 293 L 131.04227708819258 291.830865704891 M 131.7172770881926 293 L 133.06727708819258 293 M 131.7172770881926 293 L 131.04227708819258 294.169134295109 M 142.10958193360585 293 L 140.75958193360586 293 M 142.10958193360585 293 L 142.78458193360586 291.830865704891 M 142.10958193360585 293 L 142.78458193360586 294.169134295109 M 157.69803920172575 284 L 156.34803920172575 284 M 157.69803920172575 284 L 158.37303920172576 282.830865704891 M 157.69803920172575 284 L 158.37303920172576 285.169134295109 M 178.48264889255228 284 L 177.80764889255227 282.830865704891 M 178.48264889255228 284 L 177.80764889255227 285.169134295109 M 178.48264889255228 284 L 179.83264889255227 284 M 162.89419162443238 293 L 162.21919162443237 291.830865704891 M 162.89419162443238 293 L 164.24419162443237 293 M 162.89419162443238 293 L 162.21919162443237 294.169134295109 M 173.28649646984564 293 L 171.93649646984565 293 M 173.28649646984564 293 L 173.96149646984566 291.830865704891 M 173.28649646984564 293 L 173.96149646984566 294.169134295109 M 194.07110616067217 275 L 193.39610616067216 273.830865704891 M 194.07110616067217 275 L 193.39610616067216 276.169134295109 M 188.87495373796554 284 L 187.52495373796555 284 M 188.87495373796554 284 L 189.54995373796555 282.830865704891 M 188.87495373796554 284 L 189.54995373796555 285.169134295109 M 17.401923788646684 293 L 18.076923788646685 291.830865704891 M 17.401923788646684 293 L 18.076923788646685 294.169134295109 M 22.598076211353316 302 L 21.923076211353315 300.830865704891 M 22.598076211353316 302 L 23.948076211353317 302 M 22.598076211353316 302 L 21.923076211353315 303.169134295109 M 32.99038105676658 302 L 31.64038105676658 302 M 32.99038105676658 302 L 33.66538105676658 300.830865704891 M 32.99038105676658 302 L 33.66538105676658 303.169134295109 M 53.77499074759311 302 L 53.09999074759311 300.830865704891 M 53.77499074759311 302 L 53.09999074759311 303.169134295109 M 53.77499074759311 302 L 55.12499074759311 302 M 38.18653347947321 311 L 37.511533479473215 309.830865704891 M 38.18653347947321 311 L 39.53653347947321 311 M 38.18653347947321 311 L 37.511533479473215 312.169134295109 M 48.578838324886476 311 L 47.228838324886475 311 M 48.578838324886476 311 L 49.25383832488647 309.830865704891 M 48.578838324886476 311 L 49.25383832488647 312.169134295109 M 64.16729559300637 302 L 62.81729559300637 302 M 64.16729559300637 302 L 64.84229559300637 300.830865704891 M 64.16729559300637 302 L 64.84229559300637 303.169134295109 M 84.9519052838329 302 L 84.2769052838329 300.830865704891 M 84.9519052838329 302 L 84.2769052838329 303.169134295109 M 84.9519052838329 302 L 86.3019052838329 302 M 69.363448015713 311 L 68.688448015713 309.830865704891 M 69.363448015713 311 L 70.713448015713 311 M 69.363448015713 311 L 68.688448015713 312.169134295109 M 79.75575286112627 311 L 78.40575286112627 311 M 79.75575286112627 311 L 80.43075286112627 309.830865704891 M 79.75575286112627 311 L 80.43075286112627 312.169134295109 M 95.34421012924616 302 L 93.99421012924617 302 M 95.34421012924616 302 L 96.01921012924616 300.830865704891 M 95.34421012924616 302 L 96.01921012924616 303.169134295109 M 116.12881982007269 302 L 115.4538198200727 300.830865704891 M 116.12881982007269 302 L 115.4538198200727 303.169134295109 M 116.12881982007269 302 L 117.47881982007269 302 M 100.5403625519528 311 L 99.8653625519528 309.830865704891 M 100.5403625519528 311 L 101.89036255195279 311 M 100.5403625519528 311 L 99.8653625519528 312.169134295109 M 110.93266739736606 311 L 109.58266739736607 311 M 110.93266739736606 311 L 111.60766739736606 309.830865704891 M 110.93266739736606 311 L 111.60766739736606 312.169134295109 M 126.52112466548596 302 L 125.17112466548596 302 M 126.52112466548596 302 L 127.19612466548595 300.830865704891 M 126.52112466548596 302 L 127.19612466548595 303.169134295109 M 147.30573435631248 302 L 146.63073435631247 300.830865704891 M 147.30573435631248 302 L 146.63073435631247 303.169134295109 M 147.30573435631248 302 L 148.65573435631248 302 M 131.7172770881926 311 L 131.04227708819258 309.830865704891 M 131.7172770881926 311 L 133.06727708819258 311 M 131.7172770881926 311 L 131.04227708819258 312.169134295109 M 142.10958193360585 311 L 140.75958193360586 311 M 142.10958193360585 311 L 142.78458193360586 309.830865704891 M 142.10958193360585 311 L 142.78458193360586 312.169134295109 M 157.69803920172575 302 L 156.34803920172575 302 M 157.69803920172575 302 L 158.37303920172576 300.830865704891 M 157.69803920172575 302 L 158.37303920172576 303.169134295109 M 178.48264889255228 302 L 177.80764889255227 300.830865704891 M 178.48264889255228 302 L 177.80764889255227 303.169134295109 M 178.48264889255228 302 L 179.83264889255227 302 M 162.89419162443238 311 L 162.21919162443237 309.830865704891 M 162.89419162443238 311 L 164.24419162443237 311 M 162.89419162443238 311 L 162.21919162443237 312.169134295109 M 173.28649646984564 311 L 171.93649646984565 311 M 173.28649646984564 311 L 173.96149646984566 309.830865704891 M 173.28649646984564 311 L 173.96149646984566 312.169134295109 M 194.07110616067217 293 L 193.39610616067216 291.830865704891 M 194.07110616067217 293 L 193.39610616067216 294.169134295109 M 188.87495373796554 302 L 187.52495373796555 302 M 188.87495373796554 302 L 189.54995373796555 300.830865704891 M 188.87495373796554 302 L 189.54995373796555 303.169134295109 M 17.401923788646684 311 L 18.076923788646685 309.830865704891 M 17.401923788646684 311 L 18.076923788646685 312.169134295109 M 22.598076211353316 320 L 21.923076211353315 318.830865704891 M 22.598076211353316 320 L 23.948076211353317 320 M 22.598076211353316 320 L 21.923076211353315 321.169134295109 M 32.99038105676658 320 L 31.64038105676658 320 M 32.99038105676658 320 L 33.66538105676658 318.830865704891 M 32.99038105676658 320 L 33.66538105676658 321.169134295109 M 53.77499074759311 320 L 53.09999074759311 318.830865704891 M 53.77499074759311 320 L 53.09999074759311 321.169134295109 M 53.77499074759311 320 L 55.12499074759311 320 M 38.18653347947321 329 L 37.511533479473215 327.830865704891 M 38.18653347947321 329 L 39.53653347947321 329 M 38.18653347947321 329 L 37.511533479473215 330.169134295109 M 48.578838324886476 329 L 47.228838324886475 329 M 48.578838324886476 329 L 49.25383832488647 327.830865704891 M 48.578838324886476 329 L 49.25383832488647 330.169134295109 M 64.16729559300637 320 L 62.81729559300637 320 M 64.16729559300637 320 L 64.84229559300637 318.830865704891 M 64.16729559300637 320 L 64.84229559300637 321.169134295109 M 84.9519052838329 320 L 84.2769052838329 318.830865704891 M 84.9519052838329 320 L 84.2769052838329 321.169134295109 M 84.9519052838329 320 L 86.3019052838329 320 M 69.363448015713 329 L 68.688448015713 327.830865704891 M 69.363448015713 329 L 70.713448015713 329 M 69.363448015713 329 L 68.688448015713 330.169134295109 M 79.75575286112627 329 L 78.40575286112627 329 M 79.75575286112627 329 L 80.43075286112627 327.830865704891 M 79.75575286112627 329 L 80.43075286112627 330.169134295109 M 95.34421012924616 320 L 93.99421012924617 320 M 95.34421012924616 320 L 96.01921012924616 318.830865704891 M 95.34421012924616 320 L 96.01921012924616 321.169134295109 M 116.12881982007269 320 L 115.4538198200727 318.830865704891 M 116.12881982007269 320 L 115.4538198200727 321.169134295109 M 116.12881982007269 320 L 117.47881982007269 320 M 100.5403625519528 329 L 99.8653625519528 327.830865704891 M 100.5403625519528 329 L 101.89036255195279 329 M 100.5403625519528 329 L 99.8653625519528 330.169134295109 M 110.93266739736606 329 L 109.58266739736607 329 M 110.93266739736606 329 L 111.60766739736606 327.830865704891 M 110.93266739736606 329 L 111.60766739736606 330.169134295109 M 126.52112466548596 320 L 125.17112466548596 320 M 126.52112466548596 320 L 127.19612466548595 318.830865704891 M 126.52112466548596 320 L 127.19612466548595 321.169134295109 M 147.30573435631248 320 L 146.63073435631247 318.830865704891 M 147.30573435631248 320 L 146.63073435631247 321.169134295109 M 147.30573435631248 320 L 148.65573435631248 320 M 131.7172770881926 329 L 131.04227708819258 327.830865704891 M 131.7172770881926 329 L 133.06727708819258 329 M 131.7172770881926 329 L 131.04227708819258 330.169134295109 M 142.10958193360585 329 L 140.75958193360586 329 M 142.10958193360585 329 L 142.78458193360586 327.830865704891 M 142.10958193360585 329 L 142.78458193360586 330.169134295109 M 157.69803920172575 320 L 156.34803920172575 320 M 157.69803920172575 320 L 158.37303920172576 318.830865704891 M 157.69803920172575 320 L 158.37303920172576 321.169134295109 M 178.48264889255228 320 L 177.80764889255227 318.830865704891 M 178.48264889255228 320 L 177.80764889255227 321.169134295109 M 178.48264889255228 320 L 179.83264889255227 320 M 162.89419162443238 329 L 162.21919162443237 327.830865704891 M 162.89419162443238 329 L 164.24419162443237 329 M 162.89419162443238 329 L 162.21919162443237 330.169134295109 M 173.28649646984564 329 L 171.93649646984565 329 M 173.28649646984564 329 L 173.96149646984566 327.830865704891 M 173.28649646984564 329 L 173.96149646984566 330.169134295109 M 194.07110616067217 311 L 193.39610616067216 309.830865704891 M 194.07110616067217 311 L 193.39610616067216 312.169134295109 M 188.87495373796554 320 L 187.52495373796555 320 M 188.87495373796554 320 L 189.54995373796555 318.830865704891 M 188.87495373796554 320 L 189.54995373796555 321.169134295109 M 17.401923788646684 329 L 18.076923788646685 327.830865704891 M 17.401923788646684 329 L 18.076923788646685 330.169134295109 M 22.598076211353316 338 L 21.923076211353315 336.830865704891 M 22.598076211353316 338 L 23.948076211353317 338 M 22.598076211353316 338 L 21.923076211353315 339.169134295109 M 32.99038105676658 338 L 31.64038105676658 338 M 32.99038105676658 338 L 33.66538105676658 336.830865704891 M 32.99038105676658 338 L 33.66538105676658 339.169134295109 M 53.77499074759311 338 L 53.09999074759311 336.830865704891 M 53.77499074759311 338 L 53.09999074759311 339.169134295109 M 53.77499074759311 338 L 55.12499074759311 338 M 38.18653347947321 347 L 37.511533479473215 345.830865704891 M 38.18653347947321 347 L 39.53653347947321 347 M 38.18653347947321 347 L 37.511533479473215 348.169134295109 M 48.578838324886476 347 L 47.228838324886475 347 M 48.578838324886476 347 L 49.25383832488647 345.830865704891 M 48.578838324886476 347 L 49.25383832488647 348.169134295109 M 64.16729559300637 338 L 62.81729559300637 338 M 64.16729559300637 338 L 64.84229559300637 336.830865704891 M 64.16729559300637 338 L 64.84229559300637 339.169134295109 M 84.9519052838329 338 L 84.2769052838329 336.830865704891 M 84.9519052838329 338 L 84.2769052838329 339.169134295109 M 84.9519052838329 338 L 86.3019052838329 338 M 69.363448015713 347 L 68.688448015713 345.830865704891 M 69.363448015713 347 L 70.713448015713 347 M 69.363448015713 347 L 68.688448015713 348.169134295109 M 79.75575286112627 347 L 78.40575286112627 347 M 79.75575286112627 347 L 80.43075286112627 345.830865704891 M 79.75575286112627 347 L 80.43075286112627 348.169134295109 M 95.34421012924616 338 L 93.99421012924617 338 M 95.34421012924616 338 L 96.01921012924616 336.830865704891 M 95.34421012924616 338 L 96.01921012924616 339.169134295109 M 116.12881982007269 338 L 115.4538198200727 336.830865704891 M 116.12881982007269 338 L 115.4538198200727 339.169134295109 M 116.12881982007269 338 L 117.47881982007269 338 M 100.5403625519528 347 L 99.8653625519528 345.830865704891 M 100.5403625519528 347 L 101.89036255195279 347 M 100.5403625519528 347 L 99.8653625519528 348.169134295109 M 110.93266739736606 347 L 109.58266739736607 347 M 110.93266739736606 347 L 111.60766739736606 345.830865704891 M 110.93266739736606 347 L 111.60766739736606 348.169134295109 M 126.52112466548596 338 L 125.17112466548596 338 M 126.52112466548596 338 L 127.19612466548595 336.830865704891 M 126.52112466548596 338 L 127.19612466548595 339.169134295109 M 147.30573435631248 338 L 146.63073435631247 336.830865704891 M 147.30573435631248 338 L 146.63073435631247 339.169134295109 M 147.30573435631248 338 L 148.65573435631248 338 M 131.7172770881926 347 L 131.04227708819258 345.830865704891 M 131.7172770881926 347 L 133.06727708819258 347 M 131.7172770881926 347 L 131.04227708819258 348.169134295109 M 142.10958193360585 347 L 140.75958193360586 347 M 142.10958193360585 347 L 142.78458193360586 345.830865704891 M 142.10958193360585 347 L 142.78458193360586 348.169134295109 M 157.69803920172575 338 L 156.34803920172575 338 M 157.69803920172575 338 L 158.37303920172576 336.830865704891 M 157.69803920172575 338 L 158.37303920172576 339.169134295109 M 178.48264889255228 338 L 177.80764889255227 336.830865704891 M 178.48264889255228 338 L 177.80764889255227 339.169134295109 M 178.48264889255228 338 L 179.83264889255227 338 M 162.89419162443238 347 L 162.21919162443237 345.830865704891 M 162.89419162443238 347 L 164.24419162443237 347 M 162.89419162443238 347 L 162.21919162443237 348.169134295109 M 173.28649646984564 347 L 171.93649646984565 347 M 173.28649646984564 347 L 173.96149646984566 345.830865704891 M 173.28649646984564 347 L 173.96149646984566 348.169134295109 M 194.07110616067217 329 L 193.39610616067216 327.830865704891 M 194.07110616067217 329 L 193.39610616067216 330.169134295109 M 188.87495373796554 338 L 187.52495373796555 338 M 188.87495373796554 338 L 189.54995373796555 336.830865704891 M 188.87495373796554 338 L 189.54995373796555 339.169134295109 M 17.401923788646684 347 L 18.076923788646685 345.830865704891 M 17.401923788646684 347 L 18.076923788646685 348.169134295109 M 22.598076211353316 356 L 21.923076211353315 354.830865704891 M 22.598076211353316 356 L 23.948076211353317 356 M 22.598076211353316 356 L 21.923076211353315 357.169134295109 M 32.99038105676658 356 L 31.64038105676658 356 M 32.99038105676658 356 L 33.66538105676658 354.830865704891 M 32.99038105676658 356 L 33.66538105676658 357.169134295109 M 53.77499074759311 356 L 53.09999074759311 354.830865704891 M 53.77499074759311 356 L 53.09999074759311 357.169134295109 M 53.77499074759311 356 L 55.12499074759311 356 M 38.18653347947321 365 L 37.511533479473215 363.830865704891 M 38.18653347947321 365 L 39.53653347947321 365 M 38.18653347947321 365 L 37.511533479473215 366.169134295109 M 48.578838324886476 365 L 47.228838324886475 365 M 48.578838324886476 365 L 49.25383832488647 363.830865704891 M 48.578838324886476 365 L 49.25383832488647 366.169134295109 M 64.16729559300637 356 L 62.81729559300637 356 M 64.16729559300637 356 L 64.84229559300637 354.830865704891 M 64.16729559300637 356 L 64.84229559300637 357.169134295109 M 84.9519052838329 356 L 84.2769052838329 354.830865704891 M 84.9519052838329 356 L 84.2769052838329 357.169134295109 M 84.9519052838329 356 L 86.3019052838329 356 M 69.363448015713 365 L 68.688448015713 363.830865704891 M 69.363448015713 365 L 70.713448015713 365 M 69.363448015713 365 L 68.688448015713 366.169134295109 M 79.75575286112627 365 L 78.40575286112627 365 M 79.75575286112627 365 L 80.43075286112627 363.830865704891 M 79.75575286112627 365 L 80.43075286112627 366.169134295109 M 95.34421012924616 356 L 93.99421012924617 356 M 95.34421012924616 356 L 96.01921012924616 354.830865704891 M 95.34421012924616 356 L 96.01921012924616 357.169134295109 M 116.12881982007269 356 L 115.4538198200727 354.830865704891 M 116.12881982007269 356 L 115.4538198200727 357.169134295109 M 116.12881982007269 356 L 117.47881982007269 356 M 100.5403625519528 365 L 99.8653625519528 363.830865704891 M 100.5403625519528 365 L 101.89036255195279 365 M 100.5403625519528 365 L 99.8653625519528 366.169134295109 M 110.93266739736606 365 L 109.58266739736607 365 M 110.93266739736606 365 L 111.60766739736606 363.830865704891 M 110.93266739736606 365 L 111.60766739736606 366.169134295109 M 126.52112466548596 356 L 125.17112466548596 356 M 126.52112466548596 356 L 127.19612466548595 354.830865704891 M 126.52112466548596 356 L 127.19612466548595 357.169134295109 M 147.30573435631248 356 L 146.63073435631247 354.830865704891 M 147.30573435631248 356 L 146.63073435631247 357.169134295109 M 147.30573435631248 356 L 148.65573435631248 356 M 131.7172770881926 365 L 131.04227708819258 363.830865704891 M 131.7172770881926 365 L 133.06727708819258 365 M 131.7172770881926 365 L 131.04227708819258 366.169134295109 M 142.10958193360585 365 L 140.75958193360586 365 M 142.10958193360585 365 L 142.78458193360586 363.830865704891 M 142.10958193360585 365 L 142.78458193360586 366.169134295109 M 157.69803920172575 356 L 156.34803920172575 356 M 157.69803920172575 356 L 158.37303920172576 354.830865704891 M 157.69803920172575 356 L 158.37303920172576 357.169134295109 M 178.48264889255228 356 L 177.80764889255227 354.830865704891 M 178.48264889255228 356 L 177.80764889255227 357.169134295109 M 178.48264889255228 356 L 179.83264889255227 356 M 162.89419162443238 365 L 162.21919162443237 363.830865704891 M 162.89419162443238 365 L 164.24419162443237 365 M 162.89419162443238 365 L 162.21919162443237 366.169134295109 M 173.28649646984564 365 L 171.93649646984565 365 M 173.28649646984564 365 L 173.96149646984566 363.830865704891 M 173.28649646984564 365 L 173.96149646984566 366.169134295109 M 194.07110616067217 347 L 193.39610616067216 345.830865704891 M 194.07110616067217 347 L 193.39610616067216 348.169134295109 M 188.87495373796554 356 L 187.52495373796555 356 M 188.87495373796554 356 L 189.54995373796555 354.830865704891 M 188.87495373796554 356 L 189.54995373796555 357.169134295109 M 17.401923788646684 365 L 18.076923788646685 363.830865704891 M 17.401923788646684 365 L 18.076923788646685 366.169134295109 M 22.598076211353316 374 L 21.923076211353315 372.830865704891 M 22.598076211353316 374 L 23.948076211353317 374 M 22.598076211353316 374 L 21.923076211353315 375.169134295109 M 32.99038105676658 374 L 31.64038105676658 374 M 32.99038105676658 374 L 33.66538105676658 372.830865704891 M 32.99038105676658 374 L 33.66538105676658 375.169134295109 M 53.77499074759311 374 L 53.09999074759311 372.830865704891 M 53.77499074759311 374 L 53.09999074759311 375.169134295109 M 53.77499074759311 374 L 55.12499074759311 374 M 38.18653347947321 383 L 37.511533479473215 381.830865704891 M 38.18653347947321 383 L 39.53653347947321 383 M 38.18653347947321 383 L 37.511533479473215 384.169134295109 M 48.578838324886476 383 L 47.228838324886475 383 M 48.578838324886476 383 L 49.25383832488647 381.830865704891 M 48.578838324886476 383 L 49.25383832488647 384.169134295109 M 64.16729559300637 374 L 62.81729559300637 374 M 64.16729559300637 374 L 64.84229559300637 372.830865704891 M 64.16729559300637 374 L 64.84229559300637 375.169134295109 M 84.9519052838329 374 L 84.2769052838329 372.830865704891 M 84.9519052838329 374 L 84.2769052838329 375.169134295109 M 84.9519052838329 374 L 86.3019052838329 374 M 69.363448015713 383 L 68.688448015713 381.830865704891 M 69.363448015713 383 L 70.713448015713 383 M 69.363448015713 383 L 68.688448015713 384.169134295109 M 79.75575286112627 383 L 78.40575286112627 383 M 79.75575286112627 383 L 80.43075286112627 381.830865704891 M 79.75575286112627 383 L 80.43075286112627 384.169134295109 M 95.34421012924616 374 L 93.99421012924617 374 M 95.34421012924616 374 L 96.01921012924616 372.830865704891 M 95.34421012924616 374 L 96.01921012924616 375.169134295109 M 116.12881982007269 374 L 115.4538198200727 372.830865704891 M 116.12881982007269 374 L 115.4538198200727 375.169134295109 M 116.12881982007269 374 L 117.47881982007269 374 M 100.5403625519528 383 L 99.8653625519528 381.830865704891 M 100.5403625519528 383 L 101.89036255195279 383 M 100.5403625519528 383 L 99.8653625519528 384.169134295109 M 110.93266739736606 383 L 109.58266739736607 383 M 110.93266739736606 383 L 111.60766739736606 381.830865704891 M 110.93266739736606 383 L 111.60766739736606 384.169134295109 M 126.52112466548596 374 L 125.17112466548596 374 M 126.52112466548596 374 L 127.19612466548595 372.830865704891 M 126.52112466548596 374 L 127.19612466548595 375.169134295109 M 147.30573435631248 374 L 146.63073435631247 372.830865704891 M 147.30573435631248 374 L 146.63073435631247 375.169134295109 M 147.30573435631248 374 L 148.65573435631248 374 M 131.7172770881926 383 L 131.04227708819258 381.830865704891 M 131.7172770881926 383 L 133.06727708819258 383 M 131.7172770881926 383 L 131.04227708819258 384.169134295109 M 142.10958193360585 383 L 140.75958193360586 383 M 142.10958193360585 383 L 142.78458193360586 381.830865704891 M 142.10958193360585 383 L 142.78458193360586 384.169134295109 M 157.69803920172575 374 L 156.34803920172575 374 M 157.69803920172575 374 L 158.37303920172576 372.830865704891 M 157.69803920172575 374 L 158.37303920172576 375.169134295109 M 178.48264889255228 374 L 177.80764889255227 372.830865704891 M 178.48264889255228 374 L 177.80764889255227 375.169134295109 M 178.48264889255228 374 L 179.83264889255227 374 M 162.89419162443238 383 L 162.21919162443237 381.830865704891 M 162.89419162443238 383 L 164.24419162443237 383 M 162.89419162443238 383 L 162.21919162443237 384.169134295109 M 173.28649646984564 383 L 171.93649646984565 383 M 173.28649646984564 383 L 173.96149646984566 381.830865704891 M 173.28649646984564 383 L 173.96149646984566 384.169134295109 M 194.07110616067217 365 L 193.39610616067216 363.830865704891 M 194.07110616067217 365 L 193.39610616067216 366.169134295109 M 188.87495373796554 374 L 187.52495373796555 374 M 188.87495373796554 374 L 189.54995373796555 372.830865704891 M 188.87495373796554 374 L 189.54995373796555 375.169134295109 M 17.401923788646684 383 L 18.076923788646685 381.830865704891 M 17.401923788646684 383 L 18.076923788646685 384.169134295109 M 22.598076211353316 392 L 21.923076211353315 390.830865704891 M 22.598076211353316 392 L 23.948076211353317 392 M 32.99038105676658 392 L 31.64038105676658 392 M 32.99038105676658 392 L 33.66538105676658 390.830865704891 M 53.77499074759311 392 L 53.09999074759311 390.830865704891 M 53.77499074759311 392 L 55.12499074759311 392 M 64.16729559300637 392 L 62.81729559300637 392 M 64.16729559300637 392 L 64.84229559300637 390.830865704891 M 84.9519052838329 392 L 84.2769052838329 390.830865704891 M 84.9519052838329 392 L 86.3019052838329 392 M 95.34421012924616 392 L 93.99421012924617 392 M 95.34421012924616 392 L 96.01921012924616 390.830865704891 M 116.12881982007269 392 L 115.4538198200727 390.830865704891 M 116.12881982007269 392 L 117.47881982007269 392 M 126.52112466548596 392 L 125.17112466548596 392 M 126.52112466548596 392 L 127.19612466548595 390.830865704891 M 147.30573435631248 392 L 146.63073435631247 390.830865704891 M 147.30573435631248 392 L 148.65573435631248 392 M 157.69803920172575 392 L 156.34803920172575 392 M 157.69803920172575 392 L 158.37303920172576 390.830865704891 M 194.07110616067217 383 L 193.39610616067216 381.830865704891 M 194.07110616067217 383 L 193.39610616067216 384.169134295109 M 178.48264889255228 392 L 177.80764889255227 390.830865704891 M 178.48264889255228 392 L 179.83264889255227 392 M 188.87495373796554 392 L 187.52495373796555 392 M 188.87495373796554 392 L 189.54995373796555 390.830865704891" fill="none" stroke="oklch(from var(--grid-color, #ff6688) l c calc(h + 180))" stroke-width="0.4" stroke-linecap="round"/>
  <path id="part" d="M 236.62768775266122 241.3 L 234.54922678357858 237.7 M 229.8726896031426 235 L 225.7157676649773 235 M 221.03923048454132 237.7 L 218.96076951545868 241.3 M 218.96076951545868 246.7 L 221.03923048454132 250.3 M 225.7157676649773 253 L 229.8726896031426 253 M 234.54922678357858 250.3 L 236.62768775266122 246.7 M 252.2161450207811 250.3 L 250.13768405169847 246.7 M 245.46114687126249 244 L 241.3042249330972 244 M 234.54922678357858 255.7 L 236.62768775266122 259.3 M 241.3042249330972 262 L 245.46114687126249 262 M 250.13768405169847 259.3 L 252.2161450207811 255.7 M 267.80460228890104 241.3 L 265.72614131981834 237.7 M 261.0496041393824 235 L 256.8926822012171 235 M 252.2161450207811 237.7 L 250.13768405169847 241.3 M 256.8926822012171 253 L 261.0496041393824 253 M 265.72614131981834 250.3 L 267.80460228890104 246.7 M 283.39305955702093 250.3 L 281.31459858793824 246.7 M 276.6380614075023 244 L 272.481139469337 244 M 265.72614131981834 255.7 L 267.80460228890104 259.3 M 272.481139469337 262 L 276.6380614075023 262 M 281.31459858793824 259.3 L 283.39305955702093 255.7 M 298.98151682514083 241.3 L 296.90305585605813 237.7 M 292.2265186756222 235 L 288.0695967374569 235 M 283.39305955702093 237.7 L 281.31459858793824 241.3 M 288.0695967374569 253 L 292.2265186756222 253 M 296.90305585605813 250.3 L 298.98151682514083 246.7 M 314.5699740932607 250.3 L 312.491513124178 246.7 M 307.81497594374207 244 L 303.6580540055768 244 M 296.90305585605813 255.7 L 298.98151682514083 259.3 M 303.6580540055768 262 L 307.81497594374207 262 M 312.491513124178 259.3 L 314.5699740932607 255.7 M 330.1584313613806 241.3 L 328.0799703922979 237.7 M 323.40343321186197 235 L 319.2465112736967 235 M 314.5699740932607 237.7 L 312.491513124178 241.3 M 319.2465112736967 253 L 323.40343321186197 253 M 328.0799703922979 250.3 L 330.1584313613806 246.7 M 345.7468886295005 250.3 L 343.6684276604178 246.7 M 338.99189047998186 244 L 334.8349685418166 244 M 328.0799703922979 255.7 L 330.1584313613806 259.3 M 334.8349685418166 262 L 338.99189047998186 262 M 343.6684276604178 259.3 L 345.7468886295005 255.7 M 361.3353458976204 241.3 L 359.2568849285377 237.7 M 354.58034774810176 235 L 350.4234258099365 235 M 345.7468886295005 237.7 L 343.6684276604178 241.3 M 350.4234258099365 253 L 354.58034774810176 253 M 359.2568849285377 250.3 L 361.3353458976204 246.7 M 376.9238031657403 250.3 L 374.8453421966576 246.7 M 370.16880501622165 244 L 366.01188307805637 244 M 359.2568849285377 255.7 L 361.3353458976204 259.3 M 366.01188307805637 262 L 370.16880501622165 262 M 374.8453421966576 259.3 L 376.9238031657403 255.7 M 392.5122604338602 241.3 L 390.4337994647775 237.7 M 385.75726228434155 235 L 381.60034034617627 235 M 376.9238031657403 237.7 L 374.8453421966576 241.3 M 381.60034034617627 253 L 385.75726228434155 253 M 390.4337994647775 250.3 L 392.5122604338602 246.7 M 221.03923048454132 255.7 L 218.96076951545868 259.3 M 218.96076951545868 264.7 L 221.03923048454132 268.3 M 225.7157676649773 271 L 229.8726896031426 271 M 234.54922678357858 268.3 L 236.62768775266122 264.7 M 252.2161450207811 268.3 L 250.13768405169847 264.7 M 234.54922678357858 273.7 L 236.62768775266122 277.3 M 241.3042249330972 280 L 245.46114687126249 280 M 250.13768405169847 277.3 L 252.2161450207811 273.7 M 256.8926822012171 271 L 261.0496041393824 271 M 265.72614131981834 268.3 L 267.80460228890104 264.7 M 283.39305955702093 268.3 L 281.31459858793824 264.7 M 265.72614131981834 273.7 L 267.80460228890104 277.3 M 272.481139469337 280 L 276.6380614075023 280 M 281.31459858793824 277.3 L 283.39305955702093 273.7 M 288.0695967374569 271 L 292.2265186756222 271 M 296.90305585605813 268.3 L 298.98151682514083 264.7 M 314.5699740932607 268.3 L 312.491513124178 264.7 M 296.90305585605813 273.7 L 298.98151682514083 277.3 M 303.6580540055768 280 L 307.81497594374207 280 M 312.491513124178 277.3 L 314.5699740932607 273.7 M 319.2465112736967 271 L 323.40343321186197 271 M 328.0799703922979 268.3 L 330.1584313613806 264.7 M 345.7468886295005 268.3 L 343.6684276604178 264.7 M 328.0799703922979 273.7 L 330.1584313613806 277.3 M 334.8349685418166 280 L 338.99189047998186 280 M 343.6684276604178 277.3 L 345.7468886295005 273.7 M 350.4234258099365 271 L 354.58034774810176 271 M 359.2568849285377 268.3 L 361.3353458976204 264.7 M 376.9238031657403 268.3 L 374.8453421966576 264.7 M 359.2568849285377 273.7 L 361.3353458976204 277.3 M 366.01188307805637 280 L 370.16880501622165 280 M 374.8453421966576 277.3 L 376.9238031657403 273.7 M 392.5122604338602 259.3 L 390.4337994647775 255.7 M 381.60034034617627 271 L 385.75726228434155 271 M 390.4337994647775 268.3 L 392.5122604338602 264.7 M 221.03923048454132 273.7 L 218.96076951545868 277.3 M 218.96076951545868 282.7 L 221.03923048454132 286.3 M 225.7157676649773 289 L 229.8726896031426 289 M 234.54922678357858 286.3 L 236.62768775266122 282.7 M 252.2161450207811 286.3 L 250.13768405169847 282.7 M 234.54922678357858 291.7 L 236.62768775266122 295.3 M 241.3042249330972 298 L 245.46114687126249 298 M 250.13768405169847 295.3 L 252.2161450207811 291.7 M 256.8926822012171 289 L 261.0496041393824 289 M 265.72614131981834 286.3 L 267.80460228890104 282.7 M 283.39305955702093 286.3 L 281.31459858793824 282.7 M 265.72614131981834 291.7 L 267.80460228890104 295.3 M 272.481139469337 298 L 276.6380614075023 298 M 281.31459858793824 295.3 L 283.39305955702093 291.7 M 288.0695967374569 289 L 292.2265186756222 289 M 296.90305585605813 286.3 L 298.98151682514083 282.7 M 314.5699740932607 286.3 L 312.491513124178 282.7 M 296.90305585605813 291.7 L 298.98151682514083 295.3 M 303.6580540055768 298 L 307.81497594374207 298 M 312.491513124178 295.3 L 314.5699740932607 291.7 M 319.2465112736967 289 L 323.40343321186197 289 M 328.0799703922979 286.3 L 330.1584313613806 282.7 M 345.7468886295005 286.3 L 343.6684276604178 282.7 M 328.0799703922979 291.7 L 330.1584313613806 295.3 M 334.8349685418166 298 L 338.99189047998186 298 M 343.6684276604178 295.3 L 345.7468886295005 291.7 M 350.4234258099365 289 L 354.58034774810176 289 M 359.2568849285377 286.3 L 361.3353458976204 282.7 M 376.9238031657403 286.3 L 374.8453421966576 282.7 M 359.2568849285377 291.7 L 361.3353458976204 295.3 M 366.01188307805637 298 L 370.16880501622165 298 M 374.8453421966576 295.3 L 376.9238031657403 291.7 M 392.5122604338602 277.3 L 390.4337994647775 273.7 M 381.60034034617627 289 L 385.75726228434155 289 M 390.4337994647775 286.3 L 392.5122604338602 282.7 M 221.03923048454132 291.7 L 218.96076951545868 295.3 M 218.96076951545868 300.7 L 221.03923048454132 304.3 M 225.7157676649773 307 L 229.8726896031426 307 M 234.54922678357858 304.3 L 236.62768775266122 300.7 M 252.2161450207811 304.3 L 250.13768405169847 300.7 M 234.54922678357858 309.7 L 236.62768775266122 313.3 M 241.3042249330972 316 L 245.46114687126249 316 M 250.13768405169847 313.3 L 252.2161450207811 309.7 M 256.8926822012171 307 L 261.0496041393824 307 M 265.72614131981834 304.3 L 267.80460228890104 300.7 M 283.39305955702093 304.3 L 281.31459858793824 300.7 M 265.72614131981834 309.7 L 267.80460228890104 313.3 M 272.481139469337 316 L 276.6380614075023 316 M 281.31459858793824 313.3 L 283.39305955702093 309.7 M 288.0695967374569 307 L 292.2265186756222 307 M 296.90305585605813 304.3 L 298.98151682514083 300.7 M 314.5699740932607 304.3 L 312.491513124178 300.7 M 296.90305585605813 309.7 L 298.98151682514083 313.3 M 303.6580540055768 316 L 307.81497594374207 316 M 312.491513124178 313.3 L 314.5699740932607 309.7 M 319.2465112736967 307 L 323.40343321186197 307 M 328.0799703922979 304.3 L 330.1584313613806 300.7 M 345.7468886295005 304.3 L 343.6684276604178 300.7 M 328.0799703922979 309.7 L 330.1584313613806 313.3 M 334.8349685418166 316 L 338.99189047998186 316 M 343.6684276604178 313.3 L 345.7468886295005 309.7 M 350.4234258099365 307 L 354.58034774810176 307 M 359.2568849285377 304.3 L 361.3353458976204 300.7 M 376.9238031657403 304.3 L 374.8453421966576 300.7 M 359.2568849285377 309.7 L 361.3353458976204 313.3 M 366.01188307805637 316 L 370.16880501622165 316 M 374.8453421966576 313.3 L 376.9238031657403 309.7 M 392.5122604338602 295.3 L 390.4337994647775 291.7 M 381.60034034617627 307 L 385.75726228434155 307 M 390.4337994647775 304.3 L 392.5122604338602 300.7 M 221.03923048454132 309.7 L 218.96076951545868 313.3 M 218.96076951545868 318.7 L 221.03923048454132 322.3 M 225.7157676649773 325 L 229.8726896031426 325 M 234.54922678357858 322.3 L 236.62768775266122 318.7 M 252.2161450207811 322.3 L 250.13768405169847 318.7 M 234.54922678357858 327.7 L 236.62768775266122 331.3 M 241.3042249330972 334 L 245.46114687126249 334 M 250.13768405169847 331.3 L 252.2161450207811 327.7 M 256.8926822012171 325 L 261.0496041393824 325 M 265.72614131981834 322.3 L 267.80460228890104 318.7 M 283.39305955702093 322.3 L 281.31459858793824 318.7 M 265.72614131981834 327.7 L 267.80460228890104 331.3 M 272.481139469337 334 L 276.6380614075023 334 M 281.31459858793824 331.3 L 283.39305955702093 327.7 M 288.0695967374569 325 L 292.2265186756222 325 M 296.90305585605813 322.3 L 298.98151682514083 318.7 M 314.5699740932607 322.3 L 312.491513124178 318.7 M 296.90305585605813 327.7 L 298.98151682514083 331.3 M 303.6580540055768 334 L 307.81497594374207 334 M 312.491513124178 331.3 L 314.5699740932607 327.7 M 319.2465112736967 325 L 323.40343321186197 325 M 328.0799703922979 322.3 L 330.1584313613806 318.7 M 345.7468886295005 322.3 L 343.6684276604178 318.7 M 328.0799703922979 327.7 L 330.1584313613806 331.3 M 334.8349685418166 334 L 338.99189047998186 334 M 343.6684276604178 331.3 L 345.7468886295005 327.7 M 350.4234258099365 325 L 354.58034774810176 325 M 359.2568849285377 322.3 L 361.3353458976204 318.7 M 376.9238031657403 322.3 L 374.8453421966576 318.7 M 359.2568849285377 327.7 L 361.3353458976204 331.3 M 366.01188307805637 334 L 370.16880501622165 334 M 374.8453421966576 331.3 L 376.9238031657403 327.7 M 392.5122604338602 313.3 L 390.4337994647775 309.7 M 381.60034034617627 325 L 385.75726228434155 325 M 390.4337994647775 322.3 L 392.5122604338602 318.7 M 221.03923048454132 327.7 L 218.96076951545868 331.3 M 218.96076951545868 336.7 L 221.03923048454132 340.3 M 225.7157676649773 343 L 229.8726896031426 343 M 234.54922678357858 340.3 L 236.62768775266122 336.7 M 252.2161450207811 340.3 L 250.13768405169847 336.7 M 234.54922678357858 345.7 L 236.62768775266122 349.3 M 241.3042249330972 352 L 245.46114687126249 352 M 250.13768405169847 349.3 L 252.2161450207811 345.7 M 256.8926822012171 343 L 261.0496041393824 343 M 265.72614131981834 340.3 L 267.80460228890104 336.7 M 283.39305955702093 340.3 L 281.31459858793824 336.7 M 265.72614131981834 345.7 L 267.80460228890104 349.3 M 272.481139469337 352 L 276.6380614075023 352 M 281.31459858793824 349.3 L 283.39305955702093 345.7 M 288.0695967374569 343 L 292.2265186756222 343 M 296.90305585605813 340.3 L 298.98151682514083 336.7 M 314.5699740932607 340.3 L 312.491513124178 336.7 M 296.90305585605813 345.7 L 298.98151682514083 349.3 M 303.6580540055768 352 L 307.81497594374207 352 M 312.491513124178 349.3 L 314.5699740932607 345.7 M 319.2465112736967 343 L 323.40343321186197 343 M 328.0799703922979 340.3 L 330.1584313613806 336.7 M 345.7468886295005 340.3 L 343.6684276604178 336.7 M 328.0799703922979 345.7 L 330.1584313613806 349.3 M 334.8349685418166 352 L 338.99189047998186 352 M 343.6684276604178 349.3 L 345.7468886295005 345.7 M 350.4234258099365 343 L 354.58034774810176 343 M 359.2568849285377 340.3 L 361.3353458976204 336.7 M 376.9238031657403 340.3 L 374.8453421966576 336.7 M 359.2568849285377 345.7 L 361.3353458976204 349.3 M 366.01188307805637 352 L 370.16880501622165 352 M 374.8453421966576 349.3 L 376.9238031657403 345.7 M 392.5122604338602 331.3 L 390.4337994647775 327.7 M 381.60034034617627 343 L 385.75726228434155 343 M 390.4337994647775 340.3 L 392.5122604338602 336.7 M 221.03923048454132 345.7 L 218.96076951545868 349.3 M 218.96076951545868 354.7 L 221.03923048454132 358.3 M 225.7157676649773 361 L 229.8726896031426 361 M 234.54922678357858 358.3 L 236.62768775266122 354.7 M 252.2161450207811 358.3 L 250.13768405169847 354.7 M 234.54922678357858 363.7 L 236.62768775266122 367.3 M 241.3042249330972 370 L 245.46114687126249 370 M 250.13768405169847 367.3 L 252.2161450207811 363.7 M 256.8926822012171 361 L 261.0496041393824 361 M 265.72614131981834 358.3 L 267.80460228890104 354.7 M 283.39305955702093 358.3 L 281.31459858793824 354.7 M 265.72614131981834 363.7 L 267.80460228890104 367.3 M 272.481139469337 370 L 276.6380614075023 370 M 281.31459858793824 367.3 L 283.39305955702093 363.7 M 288.0695967374569 361 L 292.2265186756222 361 M 296.90305585605813 358.3 L 298.98151682514083 354.7 M 314.5699740932607 358.3 L 312.491513124178 354.7 M 296.90305585605813 363.7 L 298.98151682514083 367.3 M 303.6580540055768 370 L 307.81497594374207 370 M 312.491513124178 367.3 L 314.5699740932607 363.7 M 319.2465112736967 361 L 323.40343321186197 361 M 328.0799703922979 358.3 L 330.1584313613806 354.7 M 345.7468886295005 358.3 L 343.6684276604178 354.7 M 328.0799703922979 363.7 L 330.1584313613806 367.3 M 334.8349685418166 370 L 338.99189047998186 370 M 343.6684276604178 367.3 L 345.7468886295005 363.7 M 350.4234258099365 361 L 354.58034774810176 361 M 359.2568849285377 358.3 L 361.3353458976204 354.7 M 376.9238031657403 358.3 L 374.8453421966576 354.7 M 359.2568849285377 363.7 L 361.3353458976204 367.3 M 366.01188307805637 370 L 370.16880501622165 370 M 374.8453421966576 367.3 L 376.9238031657403 363.7 M 392.5122604338602 349.3 L 390.4337994647775 345.7 M 381.60034034617627 361 L 385.75726228434155 361 M 390.4337994647775 358.3 L 392.5122604338602 354.7 M 221.03923048454132 363.7 L 218.96076951545868 367.3 M 218.96076951545868 372.7 L 221.03923048454132 376.3 M 225.7157676649773 379 L 229.8726896031426 379 M 234.54922678357858 376.3 L 236.62768775266122 372.7 M 252.2161450207811 376.3 L 250.13768405169847 372.7 M 234.54922678357858 381.7 L 236.62768775266122 385.3 M 241.3042249330972 388 L 245.46114687126249 388 M 250.13768405169847 385.3 L 252.2161450207811 381.7 M 256.8926822012171 379 L 261.0496041393824 379 M 265.72614131981834 376.3 L 267.80460228890104 372.7 M 283.39305955702093 376.3 L 281.31459858793824 372.7 M 265.72614131981834 381.7 L 267.80460228890104 385.3 M 272.481139469337 388 L 276.6380614075023 388 M 281.31459858793824 385.3 L 283.39305955702093 381.7 M 288.0695967374569 379 L 292.2265186756222 379 M 296.90305585605813 376.3 L 298.98151682514083 372.7 M 314.5699740932607 376.3 L 312.491513124178 372.7 M 296.90305585605813 381.7 L 298.98151682514083 385.3 M 303.6580540055768 388 L 307.81497594374207 388 M 312.491513124178 385.3 L 314.5699740932607 381.7 M 319.2465112736967 379 L 323.40343321186197 379 M 328.0799703922979 376.3 L 330.1584313613806 372.7 M 345.7468886295005 376.3 L 343.6684276604178 372.7 M 328.0799703922979 381.7 L 330.1584313613806 385.3 M 334.8349685418166 388 L 338.99189047998186 388 M 343.6684276604178 385.3 L 345.7468886295005 381.7 M 350.4234258099365 379 L 354.58034774810176 379 M 359.2568849285377 376.3 L 361.3353458976204 372.7 M 376.9238031657403 376.3 L 374.8453421966576 372.7 M 359.2568849285377 381.7 L 361.3353458976204 385.3 M 366.01188307805637 388 L 370.16880501622165 388 M 374.8453421966576 385.3 L 376.9238031657403 381.7 M 392.5122604338602 367.3 L 390.4337994647775 363.7 M 381.60034034617627 379 L 385.75726228434155 379 M 390.4337994647775 376.3 L 392.5122604338602 372.7 M 221.03923048454132 381.7 L 218.96076951545868 385.3 M 218.96076951545868 390.7 L 221.03923048454132 394.3 M 225.7157676649773 397 L 229.8726896031426 397 M 234.54922678357858 394.3 L 236.62768775266122 390.7 M 250.13768405169847 390.7 L 252.2161450207811 394.3 M 256.8926822012171 397 L 261.0496041393824 397 M 265.72614131981834 394.3 L 267.80460228890104 390.7 M 281.31459858793824 390.7 L 283.39305955702093 394.3 M 288.0695967374569 397 L 292.2265186756222 397 M 296.90305585605813 394.3 L 298.98151682514083 390.7 M 312.491513124178 390.7 L 314.5699740932607 394.3 M 319.2465112736967 397 L 323.40343321186197 397 M 328.0799703922979 394.3 L 330.1584313613806 390.7 M 343.6684276604178 390.7 L 345.7468886295005 394.3 M 350.4234258099365 397 L 354.58034774810176 397 M 359.2568849285377 394.3 L 361.3353458976204 390.7 M 392.5122604338602 385.3 L 390.4337994647775 381.7 M 374.8453421966576 390.7 L 376.9238031657403 394.3 M 381.60034034617627 397 L 385.75726228434155 397 M 390.4337994647775 394.3 L 392.5122604338602 390.7" fill="none" stroke="oklch(from var(--grid-color, #ff6688) l c calc(h + 270))" stroke-width="0.4" stroke-linecap="round"/>
  <text id="labels" x="20" y="28" font-family="system-ui, sans-serif" font-size="11" fill="#94a3b8" text-anchor="start">Shape</text>
  <text x="220" y="28" font-family="system-ui, sans-serif" font-size="11" fill="#94a3b8" text-anchor="start">Dot</text>
  <text x="20" y="228" font-family="system-ui, sans-serif" font-size="11" fill="#94a3b8" text-anchor="start">Intersection</text>
  <text x="220" y="228" font-family="system-ui, sans-serif" font-size="11" fill="#94a3b8" text-anchor="start">Partial</text>
<script type="application/json" id="pathogen-metadata"><![CDATA[{"layers":[{"name":"bg","type":"path","styles":{"fill":"var(--bg-color, #0f172a)","stroke":"none"},"isDefault":false},{"name":"shape","type":"path","styles":{"stroke":"var(--grid-color, #ff6688)","stroke-width":"0.3","fill":"none"},"isDefault":false},{"name":"dot","type":"path","styles":{"stroke":"oklch(from var(--grid-color, #ff6688) l c calc(h + 90))","stroke-width":"0.3","fill":"oklch(from var(--grid-color, #ff6688) l c calc(h + 90))"},"isDefault":false},{"name":"int","type":"path","styles":{"stroke":"oklch(from var(--grid-color, #ff6688) l c calc(h + 180))","stroke-width":"0.4","fill":"none","stroke-linecap":"round"},"isDefault":false},{"name":"part","type":"path","styles":{"stroke":"oklch(from var(--grid-color, #ff6688) l c calc(h + 270))","stroke-width":"0.4","fill":"none","stroke-linecap":"round"},"isDefault":false},{"name":"labels","type":"text","styles":{"font-family":"system-ui, sans-serif","font-size":"11","fill":"#94a3b8","text-anchor":"start"},"isDefault":false}],"masks":[],"clipPaths":[],"gradients":[],"cssProperties":[{"name":"--grid-color","syntax":"<color>","inherits":true,"initialValue":"#ff6688"},{"name":"--bg-color","syntax":"<color>","inherits":true,"initialValue":"#0f172a"}]}]]></script>
</svg>