<svg xmlns="http://www.w3.org/2000/svg" viewBox="0 0 520 320" width="520" height="320">

  <path d="M 0 0 L 520 0 L 520 320 L 0 320 Z" fill="#0f172a" stroke="none" stroke-width="2"/>
  <text x="30" y="30" font-family="system-ui, sans-serif" font-size="14" fill="#e2e8f0" text-anchor="start">Palette from a Single Hex Literal</text>
  <text x="30" y="46" font-family="system-ui, sans-serif" font-size="10" fill="#64748b" text-anchor="start">Method chaining: (#0066ff).lighten(20%), (#0066ff).hueShift(60)</text>
  <text x="24" y="115" font-family="system-ui, sans-serif" font-size="10" fill="#94a3b8" text-anchor="end">Lightness</text>
  <text x="24" y="185" font-family="system-ui, sans-serif" font-size="10" fill="#94a3b8" text-anchor="end">Hue</text>
  <text x="24" y="255" font-family="system-ui, sans-serif" font-size="10" fill="#94a3b8" text-anchor="end">Chroma</text>
  <text x="65" y="146" font-family="monospace" font-size="7" fill="#64748b" text-anchor="middle">darken 30%</text>
  <text x="163" y="146" font-family="monospace" font-size="7" fill="#64748b" text-anchor="middle">darken 15%</text>
  <text x="261" y="146" font-family="monospace" font-size="7" fill="#64748b" text-anchor="middle">base</text>
  <text x="359" y="146" font-family="monospace" font-size="7" fill="#64748b" text-anchor="middle">lighten 15%</text>
  <text x="457" y="146" font-family="monospace" font-size="7" fill="#64748b" text-anchor="middle">lighten 30%</text>
  <text x="65" y="216" font-family="monospace" font-size="7" fill="#64748b" text-anchor="middle">-60°</text>
  <text x="163" y="216" font-family="monospace" font-size="7" fill="#64748b" text-anchor="middle">-30°</text>
  <text x="261" y="216" font-family="monospace" font-size="7" fill="#64748b" text-anchor="middle">base</text>
  <text x="359" y="216" font-family="monospace" font-size="7" fill="#64748b" text-anchor="middle">+30°</text>
  <text x="457" y="216" font-family="monospace" font-size="7" fill="#64748b" text-anchor="middle">+60°</text>
  <text x="65" y="286" font-family="monospace" font-size="7" fill="#64748b" text-anchor="middle">desat 50%</text>
  <text x="163" y="286" font-family="monospace" font-size="7" fill="#64748b" text-anchor="middle">desat 25%</text>
  <text x="261" y="286" font-family="monospace" font-size="7" fill="#64748b" text-anchor="middle">base</text>
  <text x="359" y="286" font-family="monospace" font-size="7" fill="#64748b" text-anchor="middle">sat 1.3×</text>
  <text x="457" y="286" font-family="monospace" font-size="7" fill="#64748b" text-anchor="middle">sat 1.6×</text>
  <path d="M 40 90 L 90 90 Q 95 90 95 95 L 95 129 Q 95 134 90 134 L 40 134 Q 35 134 35 129 L 35 95 Q 35 90 40 90 Z" fill="#000096" stroke="#475569" stroke-width="1"/>
  <path d="M 138 90 L 188 90 Q 193 90 193 95 L 193 129 Q 193 134 188 134 L 138 134 Q 133 134 133 129 L 133 95 Q 133 90 138 90 Z" fill="#002fca" stroke="#475569" stroke-width="1"/>
  <path d="M 236 90 L 286 90 Q 291 90 291 95 L 291 129 Q 291 134 286 134 L 236 134 Q 231 134 231 129 L 231 95 Q 231 90 236 90 Z" fill="#0066ff" stroke="#475569" stroke-width="1"/>
  <path d="M 334 90 L 384 90 Q 389 90 389 95 L 389 129 Q 389 134 384 134 L 334 134 Q 329 134 329 129 L 329 95 Q 329 90 334 90 Z" fill="#4099ff" stroke="#475569" stroke-width="1"/>
  <path d="M 432 90 L 482 90 Q 487 90 487 95 L 487 129 Q 487 134 482 134 L 432 134 Q 427 134 427 129 L 427 95 Q 427 90 432 90 Z" fill="#70ccff" stroke="#475569" stroke-width="1"/>
  <path d="M 40 160 L 90 160 Q 95 160 95 165 L 95 199 Q 95 204 90 204 L 40 204 Q 35 204 35 199 L 35 165 Q 35 160 40 160 Z" fill="#0097ae" stroke="#475569" stroke-width="1"/>
  <path d="M 138 160 L 188 160 Q 193 160 193 165 L 193 199 Q 193 204 188 204 L 138 204 Q 133 204 133 199 L 133 165 Q 133 160 138 160 Z" fill="#0083e6" stroke="#475569" stroke-width="1"/>
  <path d="M 236 160 L 286 160 Q 291 160 291 165 L 291 199 Q 291 204 286 204 L 236 204 Q 231 204 231 199 L 231 165 Q 231 160 236 160 Z" fill="#0066ff" stroke="#475569" stroke-width="1"/>
  <path d="M 334 160 L 384 160 Q 389 160 389 165 L 389 199 Q 389 204 384 204 L 334 204 Q 329 204 329 199 L 329 165 Q 329 160 334 160 Z" fill="#7d47f4" stroke="#475569" stroke-width="1"/>
  <path d="M 432 160 L 482 160 Q 487 160 487 165 L 487 199 Q 487 204 482 204 L 432 204 Q 427 204 427 199 L 427 165 Q 427 160 432 160 Z" fill="#b029c9" stroke="#475569" stroke-width="1"/>
  <path d="M 40 230 L 90 230 Q 95 230 95 235 L 95 269 Q 95 274 90 274 L 40 274 Q 35 274 35 269 L 35 235 Q 35 230 40 230 Z" fill="#4b74bc" stroke="#475569" stroke-width="1"/>
  <path d="M 138 230 L 188 230 Q 193 230 193 235 L 193 269 Q 193 274 188 274 L 138 274 Q 133 274 133 269 L 133 235 Q 133 230 138 230 Z" fill="#617699" stroke="#475569" stroke-width="1"/>
  <path d="M 236 230 L 286 230 Q 291 230 291 235 L 291 269 Q 291 274 286 274 L 236 274 Q 231 274 231 269 L 231 235 Q 231 230 236 230 Z" fill="#0066ff" stroke="#475569" stroke-width="1"/>
  <path d="M 334 230 L 384 230 Q 389 230 389 235 L 389 269 Q 389 274 384 274 L 334 274 Q 329 274 329 269 L 329 235 Q 329 230 334 230 Z" fill="#0053ff" stroke="#475569" stroke-width="1"/>
  <path d="M 432 230 L 482 230 Q 487 230 487 235 L 487 269 Q 487 274 482 274 L 432 274 Q 427 274 427 269 L 427 235 Q 427 230 432 230 Z" fill="#0026ff" stroke="#475569" stroke-width="1"/>
  <text x="261" y="82" font-family="monospace" font-size="9" fill="#38bdf8" text-anchor="middle">#0066ff</text>
  <path d="M 261 90 v 184" fill="none" stroke="#38bdf8" stroke-width="1" stroke-dasharray="3 3" opacity="0.5"/>
</svg>