<svg xmlns="http://www.w3.org/2000/svg" viewBox="0 0 400 300" width="400" height="300">
  <rect width="100%" height="100%" fill="#f5f5f5"/>
  <path d="M 0 0 L 400 0 L 400 300 L 0 300 Z" fill="var(--bg, #f5f5f5)" stroke="none" stroke-width="2"/>
  <path d="M 200 70 L 220.57248383023656 111.68440519687684 L 266.57395614066075 118.36881039375368 L 233.28697807033038 150.81559480312316 L 241.14496766047313 196.63118960624632 L 200 175 L 158.85503233952687 196.63118960624632 L 166.71302192966962 150.81559480312316 L 133.42604385933925 118.36881039375369 L 179.42751616976344 111.68440519687684 Z" fill="none" stroke="var(--primary, #e63946)" stroke-width="var(--stroke-w, 2.5)" stroke-linecap="round" stroke-linejoin="round"/>
  <path d="M 292 140 A 18 18 0 1 1 328 140 A 18 18 0 1 1 292 140 M 127.00000000000003 209.2820323027551 A 18 18 0 1 1 163.00000000000003 209.2820323027551 A 18 18 0 1 1 127.00000000000003 209.2820323027551 M 126.99999999999994 70.71796769724492 A 18 18 0 1 1 162.99999999999994 70.71796769724492 A 18 18 0 1 1 126.99999999999994 70.71796769724492 M 292 139.99999999999997 A 18 18 0 1 1 328 139.99999999999997 A 18 18 0 1 1 292 139.99999999999997" fill="none" stroke="var(--secondary, #457b9d)" stroke-width="var(--stroke-w, 2.5)"/>
  <path d="M 30 18 L 42 30 L 30 42 L 18 30 Z M 370 18 L 382 30 L 370 42 L 358 30 Z M 30 258 L 42 270 L 30 282 L 18 270 Z M 370 258 L 382 270 L 370 282 L 358 270 Z" fill="var(--accent, #2a9d8f)" stroke="var(--accent, #2a9d8f)" stroke-width="1"/>
</svg>