<svg xmlns="http://www.w3.org/2000/svg" viewBox="0 0 520 320" width="520" height="320">
  <style><![CDATA[
    @property --bg {
      syntax: "<color>";
      inherits: true;
      initial-value: #d0d7f0;
    }
    @property --demo-color {
      syntax: "<color>";
      inherits: true;
      initial-value: #e63946;
    }
  ]]></style>

  <g data-layer-name="diagram" id="diagram">
    <path data-layer-name="bg" id="bg" d="M 0 0 l 520 0 l 0 320 l -520 0 z" fill="var(--bg, #d0d7f0)" stroke="none" stroke-width="2"/>
    <g data-layer-name="masthead" id="masthead">
      <text data-layer-name="eyebrow" id="eyebrow" x="15" y="26" font-family="sans-serif" font-size="8" font-weight="700" letter-spacing="3" fill="rgba(13, 22, 56, 0.6)" text-anchor="start">OKLCH  /  01 — MANIPULATION</text>
      <text data-layer-name="title" id="title" x="15" y="66" font-family="sans-serif" font-size="38" font-weight="200" letter-spacing="-1" fill="#0d1638" text-anchor="start">Color Methods</text>
      <text data-layer-name="subtitle" id="subtitle" x="15" y="88" font-family="sans-serif" font-size="10" font-style="italic" fill="rgba(13, 22, 56, 0.6)" text-anchor="start">Eight derivations of a single base, in perceptual space.</text>
    </g>
    <g data-layer-name="rows" id="rows">
      <path data-layer-name="sw-0" id="sw-0" d="M 26 108 l 14 0 q 3 0 3 3 l 0 4 q 0 3 -3 3 l -14 0 q -3 0 -3 -3 l 0 -4 q 0 -3 3 -3 z" fill="var(--demo-color, #e63946)" stroke="rgba(13, 22, 56, 0.22)" stroke-width="0.5"/>
      <path data-layer-name="div-0" id="div-0" d="M 15 124 l 490 0" fill="none" stroke="rgba(13, 22, 56, 0.22)" stroke-width="0.5"/>
      <path data-layer-name="sw-1" id="sw-1" d="M 26 132 l 14 0 q 3 0 3 3 l 0 4 q 0 3 -3 3 l -14 0 q -3 0 -3 -3 l 0 -4 q 0 -3 3 -3 z" fill="oklch(from var(--demo-color, #e63946) calc(l + 0.18) c h)" stroke="rgba(13, 22, 56, 0.22)" stroke-width="0.5"/>
      <path data-layer-name="div-1" id="div-1" d="M 15 148 l 490 0" fill="none" stroke="rgba(13, 22, 56, 0.22)" stroke-width="0.5"/>
      <path data-layer-name="sw-2" id="sw-2" d="M 26 156 l 14 0 q 3 0 3 3 l 0 4 q 0 3 -3 3 l -14 0 q -3 0 -3 -3 l 0 -4 q 0 -3 3 -3 z" fill="oklch(from var(--demo-color, #e63946) calc(l - 0.18) c h)" stroke="rgba(13, 22, 56, 0.22)" stroke-width="0.5"/>
      <path data-layer-name="div-2" id="div-2" d="M 15 172 l 490 0" fill="none" stroke="rgba(13, 22, 56, 0.22)" stroke-width="0.5"/>
      <path data-layer-name="sw-3" id="sw-3" d="M 26 180 l 14 0 q 3 0 3 3 l 0 4 q 0 3 -3 3 l -14 0 q -3 0 -3 -3 l 0 -4 q 0 -3 3 -3 z" fill="oklch(from var(--demo-color, #e63946) l calc(c * 1.5) h)" stroke="rgba(13, 22, 56, 0.22)" stroke-width="0.5"/>
      <path data-layer-name="div-3" id="div-3" d="M 15 196 l 490 0" fill="none" stroke="rgba(13, 22, 56, 0.22)" stroke-width="0.5"/>
      <path data-layer-name="sw-4" id="sw-4" d="M 26 204 l 14 0 q 3 0 3 3 l 0 4 q 0 3 -3 3 l -14 0 q -3 0 -3 -3 l 0 -4 q 0 -3 3 -3 z" fill="oklch(from var(--demo-color, #e63946) l calc(c * 0.4) h)" stroke="rgba(13, 22, 56, 0.22)" stroke-width="0.5"/>
      <path data-layer-name="div-4" id="div-4" d="M 15 220 l 490 0" fill="none" stroke="rgba(13, 22, 56, 0.22)" stroke-width="0.5"/>
      <path data-layer-name="sw-5" id="sw-5" d="M 26 228 l 14 0 q 3 0 3 3 l 0 4 q 0 3 -3 3 l -14 0 q -3 0 -3 -3 l 0 -4 q 0 -3 3 -3 z" fill="oklch(from var(--demo-color, #e63946) l c calc(h + 90))" stroke="rgba(13, 22, 56, 0.22)" stroke-width="0.5"/>
      <path data-layer-name="div-5" id="div-5" d="M 15 244 l 490 0" fill="none" stroke="rgba(13, 22, 56, 0.22)" stroke-width="0.5"/>
      <path data-layer-name="sw-6" id="sw-6" d="M 26 252 l 14 0 q 3 0 3 3 l 0 4 q 0 3 -3 3 l -14 0 q -3 0 -3 -3 l 0 -4 q 0 -3 3 -3 z" fill="oklch(from var(--demo-color, #e63946) l c calc(h + 180))" stroke="rgba(13, 22, 56, 0.22)" stroke-width="0.5"/>
      <path data-layer-name="div-6" id="div-6" d="M 15 268 l 490 0" fill="none" stroke="rgba(13, 22, 56, 0.22)" stroke-width="0.5"/>
      <path data-layer-name="sw-7" id="sw-7" d="M 26 276 l 14 0 q 3 0 3 3 l 0 4 q 0 3 -3 3 l -14 0 q -3 0 -3 -3 l 0 -4 q 0 -3 3 -3 z" fill="oklch(from var(--demo-color, #e63946) l c h / 0.5)" stroke="rgba(13, 22, 56, 0.22)" stroke-width="0.5"/>
      <text data-layer-name="row-name" id="row-name" x="55" y="114" font-family="sans-serif" font-size="10" font-weight="700" letter-spacing="2" fill="#0d1638" text-anchor="start">BASE</text>
      <text data-layer-name="row-name" x="55" y="138" font-family="sans-serif" font-size="10" font-weight="700" letter-spacing="2" fill="#0d1638" text-anchor="start">LIGHTEN</text>
      <text data-layer-name="row-name" x="55" y="162" font-family="sans-serif" font-size="10" font-weight="700" letter-spacing="2" fill="#0d1638" text-anchor="start">DARKEN</text>
      <text data-layer-name="row-name" x="55" y="186" font-family="sans-serif" font-size="10" font-weight="700" letter-spacing="2" fill="#0d1638" text-anchor="start">SATURATE</text>
      <text data-layer-name="row-name" x="55" y="210" font-family="sans-serif" font-size="10" font-weight="700" letter-spacing="2" fill="#0d1638" text-anchor="start">DESATURATE</text>
      <text data-layer-name="row-name" x="55" y="234" font-family="sans-serif" font-size="10" font-weight="700" letter-spacing="2" fill="#0d1638" text-anchor="start">HUE +90°</text>
      <text data-layer-name="row-name" x="55" y="258" font-family="sans-serif" font-size="10" font-weight="700" letter-spacing="2" fill="#0d1638" text-anchor="start">COMPLEMENT</text>
      <text data-layer-name="row-name" x="55" y="282" font-family="sans-serif" font-size="10" font-weight="700" letter-spacing="2" fill="#0d1638" text-anchor="start">ALPHA 0.5</text>
      <text data-layer-name="row-value" id="row-value" x="505" y="114" font-family="sans-serif" font-size="8" letter-spacing="0.5" fill="rgba(13, 22, 56, 0.6)" text-anchor="end">oklch(l c h)</text>
      <text data-layer-name="row-value" x="505" y="138" font-family="sans-serif" font-size="8" letter-spacing="0.5" fill="rgba(13, 22, 56, 0.6)" text-anchor="end">oklch(l + 0.18, c, h)</text>
      <text data-layer-name="row-value" x="505" y="162" font-family="sans-serif" font-size="8" letter-spacing="0.5" fill="rgba(13, 22, 56, 0.6)" text-anchor="end">oklch(l − 0.18, c, h)</text>
      <text data-layer-name="row-value" x="505" y="186" font-family="sans-serif" font-size="8" letter-spacing="0.5" fill="rgba(13, 22, 56, 0.6)" text-anchor="end">oklch(l, c × 1.5, h)</text>
      <text data-layer-name="row-value" x="505" y="210" font-family="sans-serif" font-size="8" letter-spacing="0.5" fill="rgba(13, 22, 56, 0.6)" text-anchor="end">oklch(l, c × 0.4, h)</text>
      <text data-layer-name="row-value" x="505" y="234" font-family="sans-serif" font-size="8" letter-spacing="0.5" fill="rgba(13, 22, 56, 0.6)" text-anchor="end">oklch(l, c, h + 90)</text>
      <text data-layer-name="row-value" x="505" y="258" font-family="sans-serif" font-size="8" letter-spacing="0.5" fill="rgba(13, 22, 56, 0.6)" text-anchor="end">oklch(l, c, h + 180)</text>
      <text data-layer-name="row-value" x="505" y="282" font-family="sans-serif" font-size="8" letter-spacing="0.5" fill="rgba(13, 22, 56, 0.6)" text-anchor="end">oklch(l, c, h / 0.5)</text>
    </g>
  </g>
<script type="application/json" id="pathogen-metadata"><![CDATA[{"layers":[{"name":"diagram","type":"group","styles":{},"isDefault":false,"children":[{"name":"bg","type":"path","styles":{"fill":"var(--bg, #d0d7f0)","stroke":"none"},"isDefault":false},{"name":"masthead","type":"group","styles":{},"isDefault":false,"children":[{"name":"eyebrow","type":"text","styles":{"font-family":"sans-serif","font-size":"8","font-weight":"700","letter-spacing":"3","fill":"rgba(13, 22, 56, 0.6)","text-anchor":"start"},"isDefault":false},{"name":"title","type":"text","styles":{"font-family":"sans-serif","font-size":"38","font-weight":"200","letter-spacing":"-1","fill":"#0d1638","text-anchor":"start"},"isDefault":false},{"name":"subtitle","type":"text","styles":{"font-family":"sans-serif","font-size":"10","font-style":"italic","fill":"rgba(13, 22, 56, 0.6)","text-anchor":"start"},"isDefault":false}]},{"name":"rows","type":"group","styles":{},"isDefault":false,"children":[{"name":"sw-0","type":"path","styles":{"fill":"var(--demo-color, #e63946)","stroke":"rgba(13, 22, 56, 0.22)","stroke-width":"0.5"},"isDefault":false},{"name":"div-0","type":"path","styles":{"fill":"none","stroke":"rgba(13, 22, 56, 0.22)","stroke-width":"0.5"},"isDefault":false},{"name":"sw-1","type":"path","styles":{"fill":"oklch(from var(--demo-color, #e63946) calc(l + 0.18) c h)","stroke":"rgba(13, 22, 56, 0.22)","stroke-width":"0.5"},"isDefault":false},{"name":"div-1","type":"path","styles":{"fill":"none","stroke":"rgba(13, 22, 56, 0.22)","stroke-width":"0.5"},"isDefault":false},{"name":"sw-2","type":"path","styles":{"fill":"oklch(from var(--demo-color, #e63946) calc(l - 0.18) c h)","stroke":"rgba(13, 22, 56, 0.22)","stroke-width":"0.5"},"isDefault":false},{"name":"div-2","type":"path","styles":{"fill":"none","stroke":"rgba(13, 22, 56, 0.22)","stroke-width":"0.5"},"isDefault":false},{"name":"sw-3","type":"path","styles":{"fill":"oklch(from var(--demo-color, #e63946) l calc(c * 1.5) h)","stroke":"rgba(13, 22, 56, 0.22)","stroke-width":"0.5"},"isDefault":false},{"name":"div-3","type":"path","styles":{"fill":"none","stroke":"rgba(13, 22, 56, 0.22)","stroke-width":"0.5"},"isDefault":false},{"name":"sw-4","type":"path","styles":{"fill":"oklch(from var(--demo-color, #e63946) l calc(c * 0.4) h)","stroke":"rgba(13, 22, 56, 0.22)","stroke-width":"0.5"},"isDefault":false},{"name":"div-4","type":"path","styles":{"fill":"none","stroke":"rgba(13, 22, 56, 0.22)","stroke-width":"0.5"},"isDefault":false},{"name":"sw-5","type":"path","styles":{"fill":"oklch(from var(--demo-color, #e63946) l c calc(h + 90))","stroke":"rgba(13, 22, 56, 0.22)","stroke-width":"0.5"},"isDefault":false},{"name":"div-5","type":"path","styles":{"fill":"none","stroke":"rgba(13, 22, 56, 0.22)","stroke-width":"0.5"},"isDefault":false},{"name":"sw-6","type":"path","styles":{"fill":"oklch(from var(--demo-color, #e63946) l c calc(h + 180))","stroke":"rgba(13, 22, 56, 0.22)","stroke-width":"0.5"},"isDefault":false},{"name":"div-6","type":"path","styles":{"fill":"none","stroke":"rgba(13, 22, 56, 0.22)","stroke-width":"0.5"},"isDefault":false},{"name":"sw-7","type":"path","styles":{"fill":"oklch(from var(--demo-color, #e63946) l c h / 0.5)","stroke":"rgba(13, 22, 56, 0.22)","stroke-width":"0.5"},"isDefault":false},{"name":"row-name","type":"text","styles":{"font-family":"sans-serif","font-size":"10","font-weight":"700","letter-spacing":"2","fill":"#0d1638","text-anchor":"start"},"isDefault":false},{"name":"row-value","type":"text","styles":{"font-family":"sans-serif","font-size":"8","letter-spacing":"0.5","fill":"rgba(13, 22, 56, 0.6)","text-anchor":"end"},"isDefault":false}]}]}],"masks":[],"clipPaths":[],"gradients":[],"cssProperties":[{"name":"--bg","syntax":"<color>","inherits":true,"initialValue":"#d0d7f0"},{"name":"--demo-color","syntax":"<color>","inherits":true,"initialValue":"#e63946"}],"viewBox":{"originX":0,"originY":0,"width":520,"height":320}}]]></script>
</svg>